<svg xmlns="http://www.w3.org/2000/svg" xmlns:xlink="http://www.w3.org/1999/xlink" version="1.1" id="Layer_1" x="0px" y="0px" viewBox="0 0 2000 2000" style="enable-background:new 0 0 2000 2000;" xml:space="preserve" transform="matrix(1, 0, 0, 1, 0, 0)">
<style type="text/css">
	.st0{fill:#1976d2;}
	.st1{fill:#1976d2;}
</style>
<g>
	<g>
		<path class="st0" d="M677.2,271.3c-36.4-40.6-160.8-43.6-278,3.8c-89.5,36.2-183,83.7-216.5,166c-16.1,39.7-10.2,98.5,13.7,134.4    c30.7,46.1,85.9,58.7,138.1,59.3c54.4,0.6,109-9.5,159.9-28.9c40.9-15.6,79.6-37.1,114.2-64c40.9,15.5,73.9,50.1,86.1,92.6    c1.4,5,9.9,5.7,10.8,0c9.2-57.1,2.9-118.3-19.7-172.1c15.5-22.6,27.2-47.6,32.1-74.7C727.3,336,712,310,677.2,271.3z" fill="#5a0a0a"/>
		<path class="st0" d="M1501.2,787.7c-8.5-9.2-17.5-17.8-26.4-26.5c-0.1-0.1-0.2-0.2-0.4-0.4c0.1-0.1,0.2-0.2,0.2-0.3    c6.1-7.9,12.7-15.7,18.4-24c3.4-5-4.4-11-8.4-6.5c-6.5,7.3-12.2,15.3-18.2,23.1c-1.5-1.4-2.9-2.9-4.4-4.3    c-4.5-4.4-8.8-9.4-14-12.9c-4.2-2.8-10,2.8-7,7c3.4,4.9,8.2,8.9,12.4,13.1c2,2,4,4,6,5.9c-4.2,5.3-8.4,10.7-12.3,16.3    c-3.5,4.9,4.5,11.1,8.4,6.5c4.1-4.8,8-9.9,11.9-14.9c8.7,8.5,17.2,17.1,26.3,25.2C1498.9,799.5,1505.8,792.7,1501.2,787.7z" fill="#5a0a0a"/>
		<path class="st0" d="M1661.7,765.4c-7.6-9.6-15.8-18.8-23.8-28.1c-0.2-0.3-0.5-0.6-0.7-0.8c4.7-5.7,9.4-11.5,14-17.3    c4.2-5.2-2.9-12.8-7.6-7.6c-4.7,5.3-9.3,10.6-13.9,15.9c-5.1-6.1-10.3-12.3-15.9-17.9c-4-4-11.8,1.4-8.2,6.3    c5.1,7,10.9,13.6,16.7,20.2c-6.6,7.8-13.1,15.7-19.4,23.7c-3.7,4.9,4.4,11,8.5,6.5c6.4-6.9,12.6-14.1,18.7-21.3    c8,9.3,15.8,18.8,24.2,27.8C1659,778,1665.8,770.6,1661.7,765.4z" fill="#5a0a0a"/>
		<path class="st0" d="M1668.7,827.6c-3.2-15.5-18.2-18.5-31.7-19.9c-31.5-3.3-64.2,2-94.6,10.1c-33.1,8.7-65.3,22.2-94.5,40.1    c-5.9,3.6-0.6,12.8,5.4,9.3c32.6-18.9,68.3-33.7,105.3-42c-3.1,24.9,10.2,49.6,33.9,59.3c24.6,10,52.7,1.2,67.5-20.7    C1666.9,853.5,1671.2,839.8,1668.7,827.6z M1656.6,842.7c-5.1,21.3-25.1,36-46.9,34c-25.7-2.3-44-27-39.3-52.3    c0.1-0.6,0.1-1.1,0.1-1.7c9.8-1.8,19.7-3.1,29.7-3.9c14.1-1.1,28.7-1.3,42.6,1.1c4.8,0.8,10.4,2,13.1,6.5    C1658.7,831.1,1657.8,837.6,1656.6,842.7z" fill="#5a0a0a"/>
		<path class="st0" d="M924,693.7c-8.9-16-30.3-34.6-49.4-24.1c-8.2,4.5-13,13.8-10.6,23.1c2.5,10,11.6,17.7,19.7,23.4    c7.4,5.2,17.2,10.5,26.2,8c4.2-0.2,8.3-1.5,11.6-4.3C929.4,713.3,928.6,702,924,693.7z" fill="#5a0a0a"/>
		<path class="st0" d="M1864.9,1373.6h-3.4c-0.6-1.9-1.4-3.8-2.3-5.6l2.4-2.4c2.1-2.1,2.1-5.4,0-7.5l-10.9-10.9    c-2.1-2.1-5.4-2.1-7.5,0l-2.4,2.4c-1.8-0.9-3.7-1.7-5.6-2.3v-3.4c0-2.9-2.4-5.3-5.3-5.3h-15.4c-2.9,0-5.3,2.4-5.3,5.3v3.4    c-1.9,0.6-3.8,1.4-5.6,2.3l-2.4-2.4c-2.1-2.1-5.4-2.1-7.5,0l-10.9,10.9c-2.1,2.1-2.1,5.4,0,7.5l2.4,2.4c-0.9,1.8-1.7,3.7-2.3,5.6    h-3.4c-2.9,0-5.3,2.4-5.3,5.3l0,15.4c0,2.9,2.4,5.3,5.3,5.3h3.4c0.6,1.9,1.4,3.8,2.3,5.6l-2.4,2.4c-2.1,2.1-2.1,5.4,0,7.5    l10.9,10.9c2.1,2.1,5.4,2.1,7.5,0l2.4-2.4c1.8,0.9,3.7,1.7,5.6,2.3v3.4c0,2.9,2.4,5.3,5.3,5.3h15.4c2.9,0,5.3-2.4,5.3-5.3v-3.4    c1.9-0.6,3.8-1.4,5.6-2.3l2.4,2.4c2.1,2.1,5.4,2.1,7.5,0l10.9-10.9c2.1-2.1,2.1-5.4,0-7.5l-2.4-2.4c0.9-1.8,1.7-3.7,2.3-5.6h3.4    c2.9,0,5.3-2.4,5.3-5.3v-15.4C1870.2,1376,1867.8,1373.6,1864.9,1373.6z M1845.1,1386.6c0,12.6-10.3,22.9-22.9,22.9    c-12.6,0-22.9-10.3-22.9-22.9c0-12.6,10.3-22.9,22.9-22.9C1834.8,1363.7,1845.1,1373.9,1845.1,1386.6z" fill="#5a0a0a"/>
		<path class="st0" d="M842,1716.3c-7.5-5.5-15.1-10.6-23-15.5c-8.5-5.2-17.6-11.5-27.1-14.6c-0.2-0.1-0.4-0.1-0.6-0.2    c-1.2-1.3-3.1-1.9-5.5-1.2c-10.5,3.3-20.7,8.4-30.9,12.7c-10.2,4.3-20.6,8.5-30.7,13.1c-1.1,0.5-1.9,1.2-2.4,2    c-1.2,0.7-2.2,1.9-2.4,3.7c-1.1,11.3-0.5,23-0.6,34.3c-0.1,11.6-0.3,23.3-0.2,34.9c0,3.9,2.9,6,3.9,6.7    c7.9,6.1,16.6,11.2,24.9,16.6c8.2,5.3,16.2,11.3,24.8,15.8c0.4,0.2,0.8,0.3,1.1,0.4c1.3,1.5,3.4,2.3,5.6,1.6    c10.5-3.3,20.5-9,30.5-13.6c10.1-4.7,20.4-9.1,30.3-14c2.7-1.3,3.6-3.9,3.2-6.2c1.9-11.3,1.6-23.4,2.2-34.9    c0.3-5.6,1.8-32.7,2-35.6C847.7,1719.7,844.2,1717.9,842,1716.3z M815.6,1765.9c-6,19.8-29.2,30.4-47.8,20.4    c-17.6-9.5-23.1-32.2-12-48.4c6.3-11.1,18.4-18.6,32.1-17.4C809.9,1722.4,821.7,1745.9,815.6,1765.9z" fill="#5a0a0a"/>
		<path class="st0" d="M1728.2,1355.9c-23.6,4.5-47.1,7.6-71.2,7.7c-24.2,0.1-47.5-3.3-71.3-7c-6.4-1-9.2,8.1-2.7,9.9    c23.7,6.5,49.5,8.3,74,8.3c24.7-0.1,50-2.5,74-8.7C1737.7,1364.3,1734.8,1354.6,1728.2,1355.9z" fill="#5a0a0a"/>
		<path class="st0" d="M1738.2,1379.3c-12.1,0.3-24.6,0.3-36.6,1.9c-6,0.8-4.2,9.9,1.4,10.2c11.6,0.6,23.6-0.7,35.2-1.4    C1745,1389.5,1745.1,1379.1,1738.2,1379.3z" fill="#5a0a0a"/>
		<path class="st0" d="M1007.1,1679.6c-19,15.1-38.9,28.7-60.8,39.5c-21.7,10.7-44.8,18.5-68.5,23.5c-6.8,1.4-3.9,11.7,2.8,10.3    c48.7-9.8,97.1-32.1,133.9-65.9C1019.7,1682.3,1012.3,1675.5,1007.1,1679.6z" fill="#5a0a0a"/>
		<path class="st0" d="M910.1,1765.7c-9.9,1.6-19.7,3.3-29.4,5.5c-6.6,1.5-3.7,10.9,2.8,10c9.9-1.5,19.7-3.4,29.5-5.5    C919.5,1774.3,916.5,1764.7,910.1,1765.7z" fill="#5a0a0a"/>
	</g>
	<path class="st1" d="M1177.8,505.7c-34.8-30.6-78.9-53.6-124.5-62.5c-1.9-0.4-3.8-0.7-5.7-1.1c1.1-2.5,1-5.5-1.2-7.4   c-48.1-39.7-113.2-61.5-175.6-56.4c0,0,0,0,0,0c-1.5-1.6-3.8-2.4-6.1-0.8c-16.7,11.4-30.2,29.8-40.3,47.1c-10.4,17.6-19,38-22,58.3   c-0.1,0.6-0.1,1.1,0,1.6c-0.5,0.4-1,0.9-1.4,1.5c-20.6,31.4-32.1,68.3-34.1,105.8c-0.2,4.2,5.3,7.8,8.9,5.1   c40.4-30.1,84.4-57.6,132.3-74.2c1.2,1.6,3.1,2.7,5.6,2.2c62.9-12.3,143.4-26.9,192.9,25.9c11.2,12,18.6,26.2,22.3,42.1   c0.4,1.5,1.1,2.7,1.9,3.4c-0.6,1.6-1.3,3.3-2,4.8c-3.3,6.6,5.8,15.1,11,8.5c12.2-15.4,22.5-32.2,31-50.1   C1179.1,542,1177.9,505.2,1177.8,505.7z M895.7,414.5c-14.8-1.5-28.1-0.2-42.5,3.6c-6.7,1.8-8.9-7.7-2.8-10.1   c14.4-5.7,31.5-6.8,46.7-4C903,405.2,901.6,415.1,895.7,414.5z M1094.1,489.2c-22.1-6-44-11.6-66.9-14c-11.4-1.2-22.9-1.8-34.5-1.9   c-5.6,0-11.2,0.1-16.8,0.4c-5.4,0.3-10.9,1.1-16.2,0.4c-5.4-0.7-4.2-8.3,0-9.7c5.6-1.9,12.2-1.6,18.1-1.9   c5.6-0.3,11.2-0.4,16.8-0.3c11.5,0.1,23,0.7,34.4,2c22.9,2.5,46.3,6.7,67.9,14.8C1103.2,481.3,1100.8,491,1094.1,489.2z    M1140.6,514.7c-6.4-4.8-12.4-10-18.5-15.2c-5.4-4.6,2.4-12.2,7.8-7.8c5.8,4.8,11.6,9.5,17.1,14.6   C1151.4,510.5,1145.4,518.4,1140.6,514.7z" fill="#5a0a0a"/>
	<path class="st1" d="M920,927.8c-0.7-10.1-1.8-21.2-5.3-30.8c-1.9-5.2-11.3-5-10.5,1.4c0.2,1.3,0.4,2.6,0.6,3.9   c-2.3,0.4-4.1,2.1-4,5.1c1,16.6,2.5,33.2,3,49.8c0.4,15.1-2.2,28.9-10.7,41.6c-2.5,3.7-5.3,7.3-8.4,10.5c-2.3-1.6-5.8-1.6-7.7,1.6   c-3.5,5.8-8,10.8-13,15.1c-12.9,7.9-27.4,13.3-41.8,15.9c-29,5.3-59.7-1.3-84.3-17.5c-23.1-15.1-39.9-38.2-51.8-62.8   c-2.5-5.1-4.7-10.3-6.8-15.6c1.1-0.9,1.8-2.2,1.8-4.1c0.6-29.2-9.6-59.1-25.5-83.4c-3.6-5.5-11.7-2-10.4,4.4   c0.2,0.8,0.3,1.5,0.5,2.3c-2.4,0.3-4.5,2-4.4,5.2c0,0.8,0.1,1.7,0.1,2.5c-3,0.1-6.1,2.7-5.2,6.6c4.6,21.1,10.9,41.9,18,62.2   c6.7,19,14,38.2,24.6,55.5c2,3.2,4.1,6.4,6.3,9.4c-3.2,1.2-5.2,5.4-2.2,8.8c18,19.9,43.9,33.9,70,40.4c4,1.3,8.1,2.4,12.3,3.3   c2.7,0.6,5.5,1.1,8.3,1.5c5.6,1.4,11.4,2.3,17,2.9c14.1,3.6,30.3,1.9,44-1.7c15.3-4.1,29.5-11.7,41.6-22   c24.3-20.5,38.9-50.7,42.9-81.9C920.4,948.1,920.7,937.9,920,927.8z" fill="#5a0a0a"/>
	<path class="st1" d="M586.4,1315.7c-2.3-6.7-4.6-13.4-7-20c1-5,0.3-10.3-3.1-15c-2.5-3.4-7.3-5.1-10.5-1.4   c-33,37.4-83.6,44.6-129.5,48.9c-25.2,2.4-50.5,4.4-75.2,10.4c-22,5.4-45.9,13.9-62.7,30.4c-9.2,9-14.8,20.7-16.4,33.9   c-1.7,14.3,1.2,28.7,4.2,42.6c1.2,5.6,9.9,7.3,12.3,1.7c15.8-36.9,45.2-67.1,81-82.2c5-2.1,10.1-3.8,15.3-5.3   c10.3-1.4,20.7-2.2,31-3.4c0.9,1.9,2.6,3.4,5.1,3.3c17-0.5,34-2,50.9-4.7c18.1-0.7,36.3-1.3,54.1-4.8c15.4-3.1,32.2-8.3,45.7-16.9   C588.4,1328.9,588.9,1323,586.4,1315.7z" fill="#5a0a0a"/>
	<path class="st1" d="M1622.3,1605.6h-5.2c-1-3-2.2-5.8-3.6-8.6l3.7-3.7c3.1-3.1,3.1-8.2,0-11.3l-16.5-16.5c-3.1-3.1-8.2-3.1-11.3,0   l-3.7,3.7c-2.7-1.4-5.6-2.6-8.6-3.6v-5.2c0-4.4-3.6-8-8-8h-23.3c-4.4,0-8,3.6-8,8v5.2c-3,1-5.8,2.2-8.6,3.6l-3.7-3.7   c-3.1-3.1-8.2-3.1-11.3,0l-16.5,16.5c-3.1,3.1-3.1,8.2,0,11.3l3.7,3.7c-1.4,2.7-2.6,5.6-3.6,8.6h-5.2c-4.4,0-8,3.6-8,8l0,23.3   c0,4.4,3.6,8,8,8h5.2c1,3,2.2,5.8,3.6,8.6l-3.7,3.7c-3.1,3.1-3.1,8.2,0,11.3l16.5,16.5c3.1,3.1,8.2,3.1,11.3,0l3.7-3.7   c2.7,1.4,5.6,2.6,8.6,3.6v5.2c0,4.4,3.6,8,8,8h23.3c4.4,0,8-3.6,8-8v-5.2c3-1,5.8-2.2,8.6-3.6l3.7,3.7c3.1,3.1,8.2,3.1,11.3,0   l16.5-16.5c3.1-3.1,3.1-8.2,0-11.3l-3.7-3.7c1.4-2.7,2.6-5.6,3.6-8.6h5.2c4.4,0,8-3.6,8-8l0-23.3   C1630.3,1609.2,1626.7,1605.6,1622.3,1605.6z M1592.2,1625.3c0,19.2-15.6,34.8-34.8,34.8c-19.2,0-34.8-15.6-34.8-34.8   s15.6-34.8,34.8-34.8C1576.6,1590.5,1592.2,1606.1,1592.2,1625.3z" fill="#5a0a0a"/>
	<path class="st1" d="M1574,1094.5c0.2,5.7,0.5,11.4,1.1,17c0.7,6.1,1,12.9,3.1,18.7c0,0.1,0.1,0.2,0.2,0.3   c-0.2,1.1,0.2,2.2,1.5,3.1c5.6,3.9,11.9,6.9,17.8,10.3c6,3.4,11.9,6.8,18,10c0.7,0.3,1.3,0.5,1.9,0.4c0.8,0.3,1.8,0.3,2.7-0.2   c5.9-3.7,11.4-8.4,16.9-12.7c5.7-4.3,11.4-8.6,17.1-13.1c1.9-1.5,1.8-3.7,1.8-4.4c0-6.1-0.8-12.3-1.3-18.4   c-0.5-6-0.6-12.2-1.6-18.1c0-0.3-0.1-0.5-0.2-0.7c0.2-1.2-0.2-2.5-1.3-3.3c-5.5-3.9-12.1-6.6-18.1-9.7c-6.1-3.2-12.1-6.5-18.3-9.5   c-1.7-0.8-3.3-0.3-4.3,0.8c-6.2,3.3-12,8.1-17.8,12.1c-2.9,2-16.6,11.4-18.1,12.4C1573.5,1090.5,1573.9,1092.9,1574,1094.5z    M1608.1,1088.7c11.9-4.5,25.9,2.8,28,15.6c2,12.2-7,23.4-19.1,24.1c-7.8,1.1-16-2-20.6-9.1   C1589.1,1107.9,1596.1,1093.3,1608.1,1088.7z" fill="#5a0a0a"/>
	<path class="st1" d="M1490,1521.4c-12.8-5.9-25.6-11.8-38.8-16.9c-5.5-2.1-9.3,6.9-4,9.5c12.6,6.3,25.7,11.7,38.7,17.1   C1491.5,1533.4,1495.5,1523.9,1490,1521.4z" fill="#5a0a0a"/>
	<path class="st1" d="M1462.5,1559.6c-7.7-9.4-15.8-18.6-24-27.7c-4.7-5.3-12.2,2.4-7.7,7.7c7.9,9.3,15.9,18.5,24.3,27.4   C1459.8,1572,1466.7,1564.7,1462.5,1559.6z" fill="#5a0a0a"/>
	<path class="st1" d="M1553.5,1121.5c-28.7,20.8-50.4,52.6-59.5,86.9c-1.8,6.6,8.2,9.3,10.3,2.8c10.2-32.7,29.2-59.7,55.6-81.4   C1564.5,1126,1558.4,1118,1553.5,1121.5z" fill="#5a0a0a"/>
	<path class="st1" d="M1566,1144c-4.6,3-8.8,6.5-12.9,10.1c-4.4,3.8,1.4,11.4,6.2,8.1c4.5-3.1,9-6.2,13-9.9   C1576.7,1148.3,1571,1140.8,1566,1144z" fill="#5a0a0a"/>
	<g>
		<path d="M799.7,492.1c51.2-19.6,103.7-37,158.5-42.8c49-5.1,99.2-0.7,145.3,17.5c23.6,9.3,45.4,22.8,64.4,39.6    c3.6,2.8,8.7,6.8,9.7,7.6c0.8-1.9,4.8-11.1,2-13.7c-2.2-2-4.4-3.9-6.6-5.8c0.9-0.9,1.6-2.2,1.8-3.8c3.8-30.6-4.1-63.1-22.2-88.3    c-17.2-23.9-47.4-47.3-78.8-40.4c-2.5,0.5-3.7,2.7-3.8,4.9c-1,1.5-1.2,3.5-0.1,5.3c8.9,14,17.5,27.8,23.9,43.1    c5.4,13,9.5,26.5,12.3,40.3c-2.9-1.1-5.8-2.2-8.7-3.2c0,0,0-0.1,0-0.1c-8.9-38.8-26.4-78.5-57.9-104.2    c-14.3-11.7-31.2-20.7-49.4-24.4c-20.5-4.1-41.6-1.4-60.9,6.5c-21,8.6-41.7,23-56.1,40.7c-1.1,1.3-1.4,2.7-1.3,4    c-1.1,0.1-6.7-1-8.7,0.4c-1.5,1-2.9,2.1-4.3,3.1c-3.2,2.4-1.5,7.6,2.5,7.6c3.6,0,6.7,0,6.9,0c32.2-1.9,64.4,1.8,95.3,11.4    c28.9,8.9,58.3,22.9,82,42.2c-53.1-8-107-1.9-158.7,11.6c-28.2,7.4-55.9,16.8-83,27.5c0-0.1-4,3.1-8.2,7    C792.7,488.6,795.8,493.6,799.7,492.1C799.7,492.1,799.7,492.1,799.7,492.1z" fill="#5a0a0a"/>
		<path d="M1148.2,1210.3c-8.6-11-18.8-20.9-30.5-28.5c-4.8-3.1-10.7,4.3-6.2,8c15,12.3,33,27.2,38.4,46.7    c2.5,8.8,1.8,18.8-4.7,25.8c-6.5,6.9-14.4,6.1-21.7,1.6c1.5-19.4-18.2-38.7-33.8-46.7c-23-11.8-53.7-10.1-73.5,7.3    c-4.6,4.1,1.4,11.8,6.6,8.5c15.4-9.7,32.6-14.9,50.7-9.8c15.5,4.4,30.6,16.1,36.6,31.3c3.7,9.6-0.2,16.7-7.4,23    c-6.3,5.6-14,9.9-22,12.6c-8.1,2.8-16.5,4.1-25,4c-7.7-0.1-16.9-1.2-23.5-5.6c-10.2-6.9-0.7-16.7,7.3-19.9    c10.6-4.3,22.6-4.9,33.7-2.6c6.8,1.4,9.7-8.9,2.9-10.5c-12.6-2.9-25.8-2.6-38.1,1.7c-10.4,3.6-20.9,11-21.6,23    c-1.4,24.4,34.9,26.9,51.6,24.8c11.2-1.4,22.2-5.1,31.8-11c7.6-4.6,15.7-10.8,20.2-18.9c7.6,5.3,19.4,4.6,27,0.1    c10.5-6.1,15.9-18.4,15.6-30.3C1162.3,1232,1156,1220.4,1148.2,1210.3z" fill="#5a0a0a"/>
		<path d="M901.9,971.2c-18.3,36.9-55.1,62.9-96.9,63.8c-21.7,0.5-43.4-5.4-61.8-16.8c-18.9-11.7-33.2-29.2-43.5-48.7    c-13.4-25.2-19.3-53.2-24.3-81.1c-1.2-6.9-11.3-3.8-10.4,2.9c7.2,49.6,24.4,102.9,67.3,133c37.8,26.5,89.2,28.9,129.2,6.1    c21.4-12.2,39.6-31.2,49.9-53.6C914.2,970.4,905,964.8,901.9,971.2z" fill="#5a0a0a"/>
		<path d="M703.8,1027.5c-20.4-24.9-34.7-52.4-42.7-83.7c-1.7-6.6-11.5-3.8-10.1,2.8c6.7,32.3,22.8,64.2,45.5,88.2    C701.2,1039.8,708,1032.6,703.8,1027.5z" fill="#5a0a0a"/>
		<path d="M948.6,652.3c-6.8-3.7-15.2,1.1-15.1,8.9c0,1.8,0.6,3.6,1.7,5c0.7,3.1,3.3,5.7,6.3,6.6c3.4,1,7.1-0.3,9.5-2.7    C956.1,665.1,955,655.7,948.6,652.3z" fill="#5a0a0a"/>
		<path d="M1069.4,680.6c-4.9-4.3-13.5-3.5-16.8,2.4c-1.7,2.9-1.6,6.5,0.2,9.3c0.8,1.3,1.9,2.3,3.2,2.9c3.1,3.1,8.4,3.8,12.3,1.5    C1074,693.3,1074.4,685,1069.4,680.6z" fill="#5a0a0a"/>
		<path d="M1078.5,624.7c-6.2,0.7-12.3,4.2-16.9,8.2c-0.4,0.3-0.8,0.7-1.2,1.1c-2.9,1.8-5.4,4.1-7,6.8c-3.1,5.3,0,11.7,5.8,13.1    c5.8,1.4,12.8-2.4,17.7-5.2c5-2.9,12.2-7.6,13.1-13.9C1091,628,1084.6,624,1078.5,624.7z" fill="#5a0a0a"/>
		<path d="M954.6,606.8c-2.9-3.6-6.7-8-11.4-8.9c-5-0.9-9.2,3.1-8.9,8.1c0.2,4.9,2.6,10,5.7,14.5c1.7,3.3,3.7,6.5,5.9,9.1    c3,3.6,8.2,5.6,12.6,3C968.2,626.7,959.4,612.8,954.6,606.8z" fill="#5a0a0a"/>
		<path d="M1017.5,646.2c-4.2,19.1-8.1,38.2-12.1,57.4c-1.7,8.3-2.5,18.7-7.5,25.8c-4.5,6.3-11.9,7-17.7,2    c-5.2-4.4-11.4,2.1-7.3,7.3c5.5,7,16,8.9,24,5.5c9.3-4,13.9-13.5,16.2-22.8c5.9-23.8,10.4-48.2,15.2-72.2    C1029.6,642.2,1019,639.2,1017.5,646.2z" fill="#5a0a0a"/>
		<path d="M966.4,757.8c-9.8-3.1-21.2-1.3-30.5,2.6c-8.5,3.6-20.1,10.9-22,20.6c-2.3,11.6,10.5,16.1,19.1,10.7    c5.4-3.4,10.3-8.2,15.3-12.2c4.8-3.9,9.7-7.8,14.5-11.7c0.7,0,1.5,0.1,2.2,0.2C971,768.5,971.7,759.5,966.4,757.8z" fill="#5a0a0a"/>
		<path d="M1005.4,1545.6c-2.5-11.5-6.3-22.9-9.5-34.3c-3.2-11.4-6.4-22.8-9.6-34.3c-6.4-22.8-12.5-45.8-19.6-68.4    c-2-6.3-11.4-3.7-9.8,2.7c5.7,23,12.4,45.8,18.8,68.6c3.1,11.1,6.2,22.2,9.3,33.3c3.3,11.7,6,23.7,10,35.2    C997.2,1555.2,1006.9,1552.5,1005.4,1545.6z" fill="#5a0a0a"/>
		<path d="M1230.7,1237.1c-8.2,33.5-15.5,67.3-22.8,101c-1.5,6.9,9,9.8,10.6,2.9c7.8-33.6,15.6-67.3,22.5-101.1    C1242.2,1233.3,1232.3,1230.5,1230.7,1237.1z" fill="#5a0a0a"/>
		<path d="M1158.5,1365.7c-7.6-2.4-16.4-2.7-24.3-3.8c-8.1-1.1-16.3-2.3-24.4-3.4c-16.1-2.2-32.3-4.3-48.4-6.3    c-5.8-0.7-7.2,9.4-1.4,10.3c16.2,2.5,32.5,4.9,48.8,7.2c7.8,1.1,15.6,2.1,23.5,3.2c8.1,1.1,16.8,3.3,24.9,3    C1163,1375.6,1164.1,1367.5,1158.5,1365.7z" fill="#5a0a0a"/>
		<path d="M1137.7,1404.7c-12.7-0.8-25.8,0.7-38.4,2.1c-12.6,1.5-25.1,3.7-37.4,6.6c-6.6,1.6-3.7,11.3,2.8,10    c12.1-2.4,24.3-4.3,36.6-5.7c12.1-1.4,24.3-1.5,36.5-2.6C1144.4,1414.6,1144.6,1405.2,1137.7,1404.7z" fill="#5a0a0a"/>
		<path d="M1833.2,519.6c-36.6-60.8-99.1-103.2-165.9-124.6c-72.5-23.3-153.1-22.6-224.9,3.2c-65,23.4-122.1,66.3-163.4,121.6    c-45.9,61.5-68.3,137.3-71.4,213.5c-3.3,82.5,16,164.4,46,240.8c29.7,75.7,69,147.7,116,214c7.9,11.1,16,22.1,24.4,32.9    c0.7,1.5,9.3,11.9,11.2,14.2c4.4,5.4,11.9-2.2,7.6-7.6c-2.9-3.6-5.7-7.3-8.5-10.9c-39.5-84.4-54.5-180.2-44.2-272.7    c2.5-22.8,6.8-45.4,12.5-67.6c39.8,46.9,98.5,74.3,159.5,80.3c67.5,6.7,134.5-14.9,189-54.5c57-41.4,101.1-100.6,125.1-166.8    C1871.9,664.9,1872.5,585.1,1833.2,519.6z M1754.4,858.2c-45.7,45.9-106,79.9-171.2,86.6c-62.1,6.3-128-10.7-176.4-51    c-11.8-9.8-22.6-21-31.8-33.2c-2.9-3.9-9.3-3.9-10.8,1.4c-26.2,93.5-25.2,194.2,2.3,287.2c2.9,9.7,6,19.3,9.5,28.7    c-33-47.3-62.1-97.2-86.7-149.4c-34-72.2-60.6-149.5-68.4-229.3c-7.5-76.4,2.5-156,37.6-225c30.2-59.3,78.3-108.9,136.1-141.6    c62.6-35.4,135.7-49.1,207-40.3c69.8,8.6,138.3,39,187.7,89.7c23.2,23.8,41.9,52.2,52.5,83.8c11.7,34.8,13.7,72.4,8.1,108.5    C1839.2,743.7,1803.7,808.8,1754.4,858.2z" fill="#5a0a0a"/>
		<path d="M1358.5,654c-1.5,0.2-3.1,0.5-4.6,0.8c-1-4.7-2-9.4-3-14.1c-0.4-1.7-0.7-3.4-1-5.1c3.4-0.9,6.8-1.9,10.1-2.9    c6.7-2,3.9-11.8-2.9-10.4c-3.2,0.7-6.4,1.4-9.5,2.1c-1.6-7.9-3.3-15.9-5.3-23.7c-1.8-6.9-11.6-3.9-10.4,2.9    c1.3,7.9,2.9,15.7,4.6,23.5c-8.3,2.1-16.6,4.3-24.9,6.4c-2.9,0.7-5.8,1.4-8.6,2.2c-1.6-7.4-3.2-14.7-5.2-22    c-1.8-6.8-11.6-3.9-10.4,2.9c1.3,7.3,2.8,14.6,4.4,21.9c-8.6,2.1-17.1,4.3-25.6,6.7c-6.7,1.9-3.9,11.9,2.9,10.4    c8.5-1.9,16.9-4,25.3-6.1c1,4.2,1.9,8.4,2.9,12.7c0.5,2.5,1.1,5,1.6,7.5c-7.9,2.9-15.7,6.2-23.3,9.6c-5.5,2.5-1.6,12,4.1,9.8    c7.2-2.7,14.3-5.5,21.5-8.1c1.9,8.9,3.9,17.8,6.2,26.6c1.8,6.7,11.3,3.8,10.2-2.8c-1.6-9.2-3.6-18.4-5.6-27.5    c2.6-0.9,5.3-1.7,7.9-2.5c8.4-2.5,16.8-4.7,25.3-6.7c1.1,5.1,2.3,10.1,3.5,15.2c1.7,6.7,11.3,3.8,10.1-2.8c-0.8-5-1.8-10-2.8-15    c1.7-0.4,3.5-0.8,5.2-1.2C1368.3,662.8,1365.2,653,1358.5,654z M1309.5,666.1c-0.5-2.2-1-4.5-1.5-6.7c-0.9-4.2-1.8-8.3-2.7-12.5    c3.1-0.8,6.2-1.6,9.3-2.4c8.1-2,16.2-4,24.3-6c0.4,1.7,0.7,3.5,1.1,5.2c0.9,4.4,1.8,8.8,2.8,13.2    C1331.7,659.3,1320.5,662.4,1309.5,666.1z" fill="#5a0a0a"/>
		<path d="M1514.7,624.9c-7.2-1.2-14.4-2-21.7-2.6c-0.2-3.5-0.4-7-0.5-10.5c-0.4-8.3-0.1-17.1-1.9-25.2c-1.3-6.1-9.5-4-10.1,1.4    c-0.9,8.4,0.4,17.4,0.9,25.8c0.1,2.6,0.3,5.2,0.4,7.8c-23.9-1.1-48,0.6-71.4,4.2c5.9-18.3,11.7-36.6,17.6-54.9    c6.7-21,14.5-42,20-63.4c1.7-6.6-7.7-8.9-10.1-2.8c-7.9,20.6-13.9,42.2-20.6,63.2c-6.8,21.1-13.5,42.2-20.3,63.3    c-1.4,4.4,2.9,7.5,6.9,6.9c26.3-4.6,52.4-5.6,78.6-4.6c0.1,1.7,0.2,3.4,0.3,5.2c0.9,16.9,1.5,33.8,2.9,50.7    c0.6,6.6,10.6,6.9,10.5,0c-0.3-17.2-1.4-34.4-2.3-51.7c-0.1-1.2-0.1-2.4-0.2-3.6c6.5,0.4,13.1,0.9,19.7,1.5    C1519.3,636.1,1520.7,625.9,1514.7,624.9z" fill="#5a0a0a"/>
		<path d="M1765.4,624.9c-7.2-1.2-14.4-2-21.7-2.6c-0.2-3.5-0.4-7-0.5-10.5c-0.4-8.3-0.1-17.1-1.9-25.2c-1.3-6.1-9.5-4-10.1,1.4    c-0.9,8.4,0.4,17.4,0.9,25.8c0.1,2.6,0.3,5.2,0.4,7.8c-23.9-1.1-48,0.6-71.4,4.2c5.9-18.3,11.7-36.6,17.6-54.9    c6.7-21,14.5-42,20-63.4c1.7-6.6-7.7-8.9-10.1-2.8c-7.9,20.6-13.9,42.2-20.6,63.2c-6.8,21.1-13.5,42.2-20.3,63.3    c-1.4,4.4,2.9,7.5,6.9,6.9c26.3-4.6,52.4-5.6,78.6-4.6c0.1,1.7,0.2,3.4,0.3,5.2c0.9,16.9,1.5,33.8,2.9,50.7    c0.6,6.6,10.6,6.9,10.5,0c-0.3-17.2-1.4-34.4-2.3-51.7c-0.1-1.2-0.1-2.4-0.2-3.6c6.5,0.4,13.1,0.9,19.7,1.5    C1770,636.1,1771.5,625.9,1765.4,624.9z" fill="#5a0a0a"/>
		<path d="M1630.5,558.4c-12.2-24.7-43-41.6-68.9-28.7c-39,19.4-36,73.4-31.3,94.9c1.2,6.6,2.9,13.1,5.2,19.5    c4.8,13.4,11.5,28.2,23,37c11.6,8.9,27.1,8,39.2,0.5c12.8-8,20.6-21.8,27-35.1C1637.9,619.1,1644.5,586.9,1630.5,558.4z     M1620,629.1c-4.5,12-10.5,24.9-18.9,34.7c-7.4,8.6-19.7,16-31.3,11c-12.1-5.2-19-21.3-23.3-32.9c-5.4-14.6-9.8-36.8-8.8-49    c1.3-17.8,5.6-35.2,19.6-47.2c18.4-15.8,46.1-7.9,59.1,11C1631.2,578.3,1628.8,605.7,1620,629.1z" fill="#5a0a0a"/>
		<path d="M1556.8,1234.9c-1.7-1.6-3.7-2.4-5.7-2.4c-1.2-0.9-2.7-1.2-4.6-0.7c-68.8,20-138.4,37.2-208.6,51.6    c-19.8,4.1-39.6,7.7-59.5,11.6c-2.4,0.5-3.6,2-3.9,3.8c-88.1,88.2-176.2,176.4-264.2,264.6c-24.9,24.9-49.8,49.7-74.5,74.8    c-0.8,0.8-1.3,1.7-1.5,2.6c-0.7,1.2-1,2.7-0.4,4c1,2.6,2,5.1,3.1,7.6c1.1,2.6,1.9,5.5,3.5,7.8c0.1,0.1,0.1,0.1,0.2,0.2    c0.5,2.4,2.3,4.5,5.1,4.3c34.4-3.4,68.9-9.6,102.9-15.5c0.8-0.1,1.5-0.3,2.3-0.4c12.5,34.9,48.8,60.1,84.4,65.9    c48.6,7.8,96.4-12.6,132.4-44.4c10.1-8.9,19.3-18.7,27.9-29c8.6-10.4,17.4-21.3,24.1-33.1c2.9-5.1-4.5-11.4-8.4-6.5    c-6.9,8.9-13,18.3-20,27c-7,8.8-14.5,17.2-22.5,25c-15.7,15.4-33.6,28.7-53.7,37.9c-38.9,18-85.8,19.5-121.7-6.1    c-14.1-10.1-24.5-23.3-31.2-38.8c29.4-5.3,58.8-11.1,88-17.5c18.1-3.9,59.4-11.9,61.2-14.5c10.6-15.1,21.9-29.7,33.9-43.7    c11.2-12.9,23.5-24.6,35.1-37c2.8,2.6,5.7,5,8.7,7.2c4.9,3.6,11-4.4,6.5-8.4c-17.9-16.1-32.4-35.1-38.1-58.9    c-2.3-9.4-1.1-27.8,13.1-25.4c11.7,1.9,22.2,13.2,28.7,22.3c0.4,0.5,0.8,1,1.3,1.3c3,10,7,19.8,12.2,28.5c3.6,6,11.9,0.8,9.2-5.4    c-9.5-21.4-18.1-44-17.9-67.8c0.1-9,3.3-19,14.1-18.4c5,0.3,9.6,2.6,12.7,6.3c10.3,12.3,12.8,37,15.3,48.4    c1.5,6.8,11.9,3.9,10.5-2.9c-3.1-14.8-6.9-29.3-7.8-44.4c-0.6-9.3-2.4-28.5,7.8-34c10.8-5.8,21.7,4,27.3,12.4    c6.6,10,10.8,21.5,13.1,33.3c9.7,49.4-17.4,97.5-56,126.7c-11.6,8.7-24.2,16.1-37.2,22.4c-13.8,6.6-28.2,11-42.6,16.1    c-6.9,2.5-4.2,12.7,3,11c14.6-3.2,28.9-9.1,42.4-15.3c13.7-6.3,26.9-13.8,38.9-22.9c22.1-16.5,41-37.8,52.6-63    c11.8-25.8,15.6-55.1,8.7-82.8c-1.2-4.7-2.9-10.1-5.1-15.5c0.2-0.1,0.3-0.3,0.5-0.4c25.9-24.9,50.9-50.6,76.4-75.9    c24.9-24.7,49.7-49.5,74.4-74.4C1558.5,1249.2,1563.2,1241.1,1556.8,1234.9z M1138.3,1470.2c-28.9,31.3-58.9,61.6-88.6,92.3    c-29.6,30.6-59.1,61.5-89,91.8c-4.9,5-12.5-2.6-7.7-7.7c29.3-31,59.1-61.5,88.7-92.2c29.6-30.7,58.8-61.8,89.1-91.7    C1135.6,1457.9,1142.9,1465.2,1138.3,1470.2z M1199.2,1412.5c-7.5,7.8-15.1,15.6-22.7,23.3c-4.7,4.8-12-2.5-7.3-7.3    c7.6-7.8,15.2-15.5,22.9-23.2C1196.6,1400.7,1203.7,1407.8,1199.2,1412.5z M1339.2,1407.3c-4.8-4.5-10.7-7.8-16.4-8.9    c-12.9-2.4-24.5,4.7-28.1,17.3c-0.4,1.2-0.7,2.5-0.9,3.8c-2.1-5.6-0.7-13.7,0.4-18.5c1.9-8.5,5.9-16.6,12-22.9    c11.4-11.6,31.2-15.2,44.7-4.9C1339.7,1380,1338.8,1394.8,1339.2,1407.3z M1503.4,1269.6c-27.9,8.4-56.3,14.9-84.5,22.2    c-28.2,7.3-56.2,15.3-84.6,21.6c-6.6,1.5-9.3-8.2-2.8-10.1c27.9-8.3,56.3-15,84.4-22.3c28.1-7.3,56.2-15.4,84.6-21.7    C1507.3,1257.8,1510.1,1267.6,1503.4,1269.6z" fill="#5a0a0a"/>
		<path d="M1195.8,1249c-8.1-57.3-53.2-104.6-110-115.6c-65.9-12.8-128.7,18.4-183.6,51.2c-58.5,34.9-115.7,72-171.9,110.5    c-45.7,31.2-90.9,63.4-135.4,96.3c-3.3-7.5-7.2-14.7-10.8-22c-3.7-7.5-6.9-15.6-11.3-22.7c7.8-3.6,15.3-7.9,22.3-13.1    c2.1-1.6,2.6-3.9,2.2-5.9c0.1-0.8,0-1.6-0.3-2.5c-6.1-15.2-12.3-29.9-16.2-45.9c-3.1-12.8-4.6-25.5-5.8-38.4    c0.4,1.1,0.8,2.1,1.2,3.3c1.7,5.3,11.1,4.7,10.3-1.4c-2-15.3-18-31.6-34.5-29.5c-5.1,0.7-7.5,8.7-1.4,10c5,1,9.5,1.8,13.7,4.4    c-0.6,0.8-0.9,1.8-1,3.1c-0.5,16.8,2.5,34.4,6.4,50.7c3.6,15.4,8.5,31.4,15.8,45.6c-41.2,27.7-93.8,25.1-141.4,27.3    c-25.7,1.2-51.9,3.7-76.2,12.6c-22.1,8.1-41.7,21.6-56.4,40.1c-9.7,12.2-17.1,25.9-21.8,40.5c-2.5-39.2-2-78.9,0.2-118    c4.4-78.8,19.2-158.6,54.8-229.7c30.3-60.4,74.9-115,133.1-150.5c30.3-18.4,63.4-29.9,97.4-39.4c34.1-9.6,68.7-17.7,101.4-31.4    c32.2-13.5,61.5-32.9,83.1-60.8c21.4-27.6,34.5-61,37.8-95.8c0.7-7.6,0.8-15.2,0.4-22.8c8.1-1.5,15.6-6.2,20.7-13.8    c3.3-5.1-4.4-11.2-8.5-6.5c-11.2,12.9-31.7,11.5-37.9-5.5c-2.9-7.9-2.6-16.8-2.4-25.1c0.3-8.8,1-17.6,3.7-26    c4.4-13.6,18.8-29.3,34.7-23.2c9.4,3.6,13.2,11.6,14.4,20.6c0.3,1.8,0.5,6.5,0.4,8.7c-0.1,6-0.9,12-1.6,17c-0.8,6,8.9,7,10.4,1.4    c1.5-5.3,2.5-11.1,2.7-16.8c29.2-1.2,50.6-26.8,69.6-46.6c22-22.8,48.7-38.8,80.3-43.7c9-1.4,18-1.4,27.1-1.3    c5.6,0.1,12,0.4,18-0.5c7.5-0.6,15-3.3,20.6-7.8c6.3,2,12.4,4.3,18.4,7.2c6.2,32.8,25.8,62.2,52.5,81.8    c-6.7,21.1-13.7,42-22.8,62.4c-12.1,27.3-26.5,53.7-42.9,78.7c-14.6,22.2-31.4,43.9-52.8,60c-23,17.3-50.6,26.4-79.5,23.9    c-15.8-1.4-31.2-6.4-44.8-14.4c-13.7-8-24-18.9-34.2-30.8c-4.1-4.8-11.9,1.4-8.7,6.7c14.8,24.2,43,41.4,70.2,47.6    c3,0.7,6.1,1.3,9.2,1.7c-8.8,12.6-14.8,27.9-18.6,42.6c-2.1,8.1-3.4,16.4-4.2,24.7c-0.7,8.5-1.6,18.3,0.6,26.7    c1.6,6.2,10.2,4.5,10.7-1.4c0.6-7.8-0.5-15.7,0.1-23.5c0.4-5.9,1.3-11.8,2.5-17.6c41,7.1,78.7,26.1,110.1,53.2    c33.2,28.7,58.4,65.3,77,104.8c10.9,23.1,18.8,47,26.3,71.3c2.1,6.9,12.7,4.1,10.8-3c-11.5-44.4-31-88.5-57.2-126.2    c-13.7-19.6-29.5-37.8-47.5-53.6c21.4-21,34.9-49,37.7-78.8c3.3-34.3-9-68.8-0.8-102.8c0-0.1,0.1-0.3,0.1-0.4    c15-22.1,28.1-45.6,39.5-69.7c14.1-29.8,27-61.5,34.5-93.8c-1.4-6.8-3-13.7-4.2-20.6c-17.1-42.2-61.1-67.1-105.1-73.2    c-28-3.9-56.3-1.6-84,3.1c-27.2,4.6-53.9,12-79.5,21.9c-27.8,10.8-55.5,24.1-79.9,41.4c0-0.3-8.7,6.8-12.3,10.4    c-0.4,3.4-0.7,6.8-1.1,10.2c-0.1,0.7,0,1.3,0.1,1.9c-8.4,10.7-11.6,24.8-12.6,38.5c-0.6,7.8-1,16.5,0,24.8    c-2.6,18.4-32.9,67.1-60.8,87.2c-32.4,23.3-70.9,34-109.6,42c-71.5,14.7-155.7,23.8-203.9,86c-20.8,26.8-27.2,60.1-40.9,90.5    c-6.3,14-14.5,27.6-26.9,36.9c-15.5,11.7-35.2,14.7-53.9,17.4c-17.9,2.6-35.6,5.2-52.1,13.1c-14.2,6.7-27,16.7-37.4,28.3    c-21.1,23.5-34,54.8-33.8,86.6c0.4,65.9,61.6,119.4,126.1,118.7c6.3-0.1,12.6-0.7,18.8-1.8c-2.5,19-4.2,38.1-5.3,57.2    c-1.2,21.4-1.7,42.9-1.6,64.3c0.1,20.6,0.1,41.5,1.8,62c1.4,17.2,5,36.1,17.6,49c10,10.3,26.3,15.5,40.3,11.8    c6.7-1.8,12-5.7,16.1-11c12.5,22.4,27.6,43.3,45,62.2c42.2,45.8,98.2,77.7,159.5,89.4c63,12,128.6,2.9,184.8-28.5    c55.1-30.8,98.6-78.5,135.8-128.8c41.9-56.6,77.2-117.9,122-172.3c5.5-6.7,11.2-13.4,16.9-20c4.4-5.1-2.7-12.5-7.5-7.5    c-23.6,24.5-43.7,52.5-63.1,80.4c-19.6,28.2-38.2,57-57.7,85.2c-35.5,51.3-75.4,101.5-127,137.4c-25.2,17.5-53,31.3-82.7,39.3    c-30,8-61.4,10.3-92.3,7.5c-61.2-5.6-119.4-32-164.4-73.8c-43.1-40.2-73.9-92.7-89.5-149.4c-1.7-6.2-3.2-12.4-4.6-18.7    c12.8-13.1,28.7-23.4,46.5-29.5c47-16.1,97.8-9.1,146.4-15.6c14.4-2,28.8-5.1,42.4-10.2c2.9,7.7,7.2,15.1,10.8,22.4    c4.1,8.2,7.8,16.8,12.3,24.8c-7.1,5.3-14.2,10.6-21.2,15.9c-6.7,5-13.4,10.1-20,15.3c-4.7,3.6,1.6,11.9,6.4,8.3    c51.3-37.5,102.2-75.4,154.3-111.7c51.6-35.9,104-70.7,157.3-103.9c26.3-16.4,52.7-33,80.1-47.5c26.5-14,54.4-25.6,84.1-30.4    c29-4.8,59.8-2.7,86.5,10.2c22.5,10.8,41.8,28.1,54.7,49.6c16.3,27.2,21.8,60.8,15.1,91.8c-2.3,10.6-7.6,29.4-20.8,31    c-6.5,0.8-11.5-4.7-13.6-10.3c-2.9-7.7-1.5-16.5-0.5-24.4c0.9-7.1-10.3-7.1-11.2,0c-1.8,13.9-2.5,30,9,40.1    c9.8,8.6,22.9,7,32.1-1.5c10.1-9.2,14.3-23.1,16.7-36.1C1197.7,1279.3,1197.9,1264.1,1195.8,1249z M1030.5,905.7    c-1.9,3.5-4.1,6.7-6.4,9.9c-1.7,2.3-4.5,3.4-7.2,1.9c-2.5-1.4-3.3-4.7-1.9-7.2c1.9-3.4,4-6.8,6.4-9.9c1.7-2.2,4.5-3.4,7.1-1.9    C1031.2,900,1031.9,903.2,1030.5,905.7z M1041.5,881.5c-2.5,5.4-11.6,1.5-9.5-4c2.2-6,4-12.3,4.8-18.7c0.8-6.4,0.2-12.6-0.1-19    c-0.3-5.9,8.8-7,10.2-1.4C1050.4,852.5,1047.6,868.5,1041.5,881.5z M466.8,845.2c5-3.4,10.9-6.1,16.4-8.5c6-2.6,11.1,5.4,5.3,9    c-5.5,3.4-11.5,6.9-17.6,9.2C465,857.3,462.2,848.4,466.8,845.2z M396.8,912.2c9.7-19.7,25.8-38.5,43.9-50.9    c5-3.4,11.1,4.5,6.5,8.4c-8.1,6.9-16,13.7-23,21.7c-7.1,8.1-12.8,16.9-18.4,26C402.2,923.2,393.9,918.1,396.8,912.2z     M237.6,1065.9c-27.2,6-51.3,25-61.6,51.3c-5.3,13.7-6.9,28.9-4.5,43.4c2.6,15.5,9.5,27.8,18,40.7c3.3,5-4.1,10.4-8.2,6.3    c-10.2-10.3-16.6-25.6-19.7-39.5c-5.5-25-1.1-51.9,13.6-73.1c13.9-20.1,35.3-35,59.4-39.6C241.5,1054,244.4,1064.3,237.6,1065.9z     M279.3,1056.2c-6.2,2.7-11.6-6.2-5.4-9.2c11.4-5.4,22.8-10.8,34.5-15.6c5.5-2.3,9.2,6.9,4,9.5    C301.6,1046.3,290.5,1051.3,279.3,1056.2z" fill="#5a0a0a"/>
		<path d="M897.5,312.8c-20.2-16.5-41.1-32.6-62.6-47.3c-4.9-3.4-11,4.4-6.4,8.3c19.9,16.8,41.1,32.6,62.4,47.6    C895.9,325,902.3,316.8,897.5,312.8z" fill="#5a0a0a"/>
		<path d="M934.4,280.2c-0.8-6.7-10.8-7.1-10.7,0c0.1,8,0.7,16,1.3,23.9c0.5,7,11.3,7.1,11,0C935.7,296.1,935.3,288.1,934.4,280.2z" fill="#5a0a0a"/>
		<path d="M1204,381.2c-8.4,5.4-16.8,11.3-24.6,17.7c-4.6,3.8,1.4,11.3,6.3,8.2c8.5-5.3,16.8-11.3,24.7-17.5    C1215.2,385.8,1209.1,378,1204,381.2z" fill="#5a0a0a"/>
		<path d="M1276.8,419.2c-25.8-6.9-55.4-5.6-80.3,4.3c-6.2,2.5-3.9,12.4,2.9,10.3c12.1-3.7,24.3-6.6,37-7.3    c12.6-0.7,25.2,0.4,37.7,2.7C1280.6,430.4,1283.4,420.9,1276.8,419.2z" fill="#5a0a0a"/>
		<path d="M1651.8,1493.9c-15,4.5-30.9,4.1-45.7-1.1c-9.4-3.4-20.1-9.6-27.1-18c14.3-0.5,28.1-6.2,31.4-21.3    c2.3-10.4-8.5-19.1-17.7-21.4c-10.3-2.5-21.1,1.8-27.2,10.3c-4.4,6-5.6,12.4-4.8,18.6c-0.2-0.1-0.4-0.1-0.6-0.2    c-16-5.3-29.2-18-35.3-33.7c-2.4-6.3-12.6-3.8-10.3,2.9c6.7,19.7,23,35.1,42.7,41.7c2.5,0.8,5.2,1.5,8.1,2    c4.9,8.7,12.9,16.4,20.4,21.4c20,13.3,46.2,17.1,68.9,8.9C1660.9,1501.8,1658.4,1491.9,1651.8,1493.9z M1572.5,1461.6    c-1.6-7.4,1.6-14.8,8.7-17.9c3.2-1.4,6.7-1.5,10-0.4c2.7,0.9,8.2,4,8.7,7.2c0.3,2.2-3.5,6.6-5.3,8.1c-3.3,2.8-7.6,4.1-11.9,4.7    c-3.2,0.4-6.5,0.5-9.8,0.2C1572.8,1462.9,1572.6,1462.2,1572.5,1461.6z" fill="#5a0a0a"/>
		<path d="M1454.4,1837.4c-15.3,4.3-32.3,0.3-44.7-9.7c-4.4-3.6-8.5-8.3-11.6-13.7c2.1,0.2,4.3,0.3,6.4,0.1    c11.5-0.8,22.4-6.8,26.8-17.8c3.9-9.7,2.2-21.9-6.2-28.7c-8.1-6.5-19.6-6-28.4-1.1c-11.2,6.3-15.3,17.5-15,29.1    c-2.2-1.5-4.2-3.2-6.1-5c-16.7-15.5-28-36.4-33.9-58.3c-1.8-6.7-12.1-3.9-10.5,2.9c6.2,25.2,20.3,50.7,40.7,67    c3.8,3,7.9,5.7,12.3,7.7c2,6.4,5.2,12.4,9,17.1c14.8,18.7,41,27.9,63.9,20.4C1463.7,1845.6,1461,1835.6,1454.4,1837.4z     M1395.8,1783.4c3.4-6.4,11.1-10.8,18.4-8.9c7.8,2,9.6,11,6.9,17.7c-3.3,8.2-12.7,11.2-20.9,10.8c-2.3-0.1-4.6-0.6-6.7-1.2    C1392.2,1795.5,1392.7,1789.2,1395.8,1783.4z" fill="#5a0a0a"/>
		<path d="M381.1,455.6c-10.3-11.4-25.2-18.1-40.1-20.7c-29.6-5.2-62.6,6.7-79.4,32.3c-15.6,23.8-16.9,56.6-0.7,80.4    c17.7,26,54.8,36.4,82.9,21.8c6.1-3.2,1.8-12.6-4.5-9.7c-19.9,9.1-44.7,4.2-60.8-10.2c-16.9-15.2-20.9-40.5-13.7-61.5    c7.9-22.9,28.1-38,51.8-41.5c22.3-3.3,53.4,4.3,62.3,27.7c4.9,12.9-0.2,27.8-14.1,32.1c-12.7,3.9-25.7-5.1-28.1-17.9    c-1.1-6.1-10.9-6.2-11.2,0.3c-0.5,9.8-0.7,21.6-8.3,28.9c-6.3,6.1-14.6,4.9-19.5-2.1c-4.6-6.5-4.3-14.4,0.5-20.7    c5.4-7.1,14.2-10.5,22.8-11.3c6.9-0.6,4.9-10.8-1.7-10.5c-12.5,0.6-25.4,7-32,18c-6.2,10.4-5.2,23.2,2.5,32.6    c7.8,9.6,20.8,12.2,31.3,5.3c7.6-5.1,11.5-12.7,13.5-21c5.1,5.5,11.9,9.3,19.5,10.5c14.7,2.2,29.7-6.6,35.7-20    C396.1,484.3,391.3,466.9,381.1,455.6z" fill="#5a0a0a"/>
		<path d="M467.2,460.4c-7.5-19-16.7-37.2-24.5-56.1c-7.8-18.8-13.8-38.4-21.6-57.2c-2.2-5.4-11.4-2.8-10,3.1    c4.8,19.8,12.8,39.3,20.4,58.3c7.6,19.1,15.3,38.8,25.8,56.5C460.9,470.9,469.8,467,467.2,460.4z" fill="#5a0a0a"/>
		<path d="M625.4,392.1c-11.8,2.9-23.2,6.9-34.4,11.7c-0.6-5.7-1.2-11.5-1.8-17.2c11.6-3.4,23.3-6.4,35-9.6    c6.5-1.7,5.1-11.8-1.7-10.5c-11.6,2.2-23.1,5.3-34.4,8.7c-0.9-7.9-1.9-15.7-3.1-23.5c-1-6.7-10.6-4.8-10.2,1.7    c0.6,8.4,1.4,16.9,2.3,25.3c-1.5,0.5-3.1,1-4.6,1.5c-3.6,1.2-7.3,2.4-10.9,3.7c-1.3-10.8-2.7-21.6-4.5-32.3    c-1.1-6.8-10.9-4.9-10.4,1.7c0.9,11.5,2.3,23,3.8,34.5c-9.1,3.4-18,7.1-26.7,11.3c-6.2,3-1.9,12.2,4.5,9.7    c7.9-3.2,15.8-6.4,23.7-9.5c0.6,4.5,1.2,8.9,1.7,13.4c0.4,3.1,0.7,6.1,1.1,9.2c-8.2,4.8-16.1,10.1-23.4,16    c-5.5,4.4,1.2,11.9,6.8,8.2c6-4,12-7.9,18.1-11.6c1.5,12.6,3,25.2,5.1,37.6c1.2,6.8,11,5,10.5-1.7c-1.1-14.1-3-28.2-4.9-42.3    c4.8-2.7,9.6-5.3,14.6-7.8c1.4,13.6,2.7,27.2,4.8,40.6c1.1,6.8,10.8,4.9,10.4-1.7c-0.9-14.6-2.7-29.2-4.5-43.8    c11.8-5.1,23.9-9.3,36.1-13.3C634.1,400.3,631.2,390.7,625.4,392.1z M576.1,410.5c-3.6,1.8-7.2,3.6-10.8,5.5    c-0.2-1.7-0.4-3.4-0.7-5.1c-0.7-5.2-1.3-10.5-1.9-15.7c4.1-1.5,8.2-3,12.4-4.4c1-0.3,2-0.6,3-1c0.7,5.8,1.3,11.5,2,17.3    c0,0.4,0.1,0.9,0.1,1.3C579,409.2,577.5,409.9,576.1,410.5z" fill="#5a0a0a"/>
		<path d="M481.7,488.4c-5.2-3.3-12.3-0.7-14.5,5c-0.9,2.3-0.7,5,0.4,7.2c0.1,0.4,0.3,0.8,0.6,1.1c0.1,0.2,0.2,0.3,0.3,0.4    c1,1.5,2.4,2.6,4,3.2c1.1,0.5,2.2,0.8,3.5,0.9c2.6,0.2,5.5-0.8,7.4-2.7C487.5,499.3,486.9,491.6,481.7,488.4z" fill="#5a0a0a"/>
	</g>
	<path class="st1" d="M937.2,1416.7c-0.7,6.8-10.6,6.7-15,4.7c-7.4-3.5-12.9-10.9-18-17.1c-11.1-13.4-21.1-27.7-30-42.7   c-17.8-29.9-31-62.4-39-96.3c-3.9-16.7-11.5-43.6,7.4-54.2c6.1-3.4,0.7-12.2-5.4-9.2c-20.4,9.9-19.2,35.3-15.6,54.1   c3.9,20.3,9.7,40.3,17.2,59.6c14.9,38.3,36.4,75.6,64.5,105.7c7,7.5,16.4,14.4,27.3,13c9.7-1.2,17.3-7.8,18.3-17.7   C949.7,1409.1,938,1409.2,937.2,1416.7z" fill="#5a0a0a"/>
	<path class="st1" d="M907,1470c-2.6,6.9-12,7.9-18.1,5.8c-9.1-3.1-16-11.3-22.2-18.3c-13.2-14.8-25.1-30.8-35.4-47.7   c-20.6-33.8-35-71.4-42-110.3c-3.5-19.7-4.7-42.4,8.2-59.1c4.1-5.3-2.9-12.9-7.6-7.6c-14,16-15.6,38.1-13.2,58.4   c2.7,22.5,8.7,44.8,16.5,66.1c15.5,42.5,39.5,82.9,71.1,115.4c8,8.3,18.1,16,30.2,16.1c10.6,0,20.2-5.6,24-15.6   C921.3,1466,909.7,1462.9,907,1470z" fill="#5a0a0a"/>
	<path class="st0" d="M1116.2,727.5c-2.2-6.4-8.1-10.5-14-13c-13.7-5.7-30-5.4-43.7,0c-6.8,2.7-15.2,6.6-18.1,13.8   c-1.9,4.9-0.5,10.7,3.3,13.7c0.8,1.7,1.8,3.3,3.2,4.7c4.9,5.2,12.4,7.2,19.3,8.3c14.1,2.2,33,1.1,44.3-8.8   C1115.8,741.6,1118.5,734.3,1116.2,727.5z" fill="#5a0a0a"/>
</g>
</svg>