<svg xmlns="http://www.w3.org/2000/svg" xmlns:xlink="http://www.w3.org/1999/xlink" version="1.1" id="Layer_1" x="0px" y="0px" viewBox="0 0 2000 2000" style="enable-background:new 0 0 2000 2000;" xml:space="preserve">
<style type="text/css">
	.st0{fill:#1976d2;}
	.st1{fill:#1976d2;}
</style>
<g>
	<g id="green_2_">
		<path class="st0" d="M857.1,1598c-14.2-7.9-29-14.1-44.1-19.2c-13.8-4.6-27.8-8.1-38.8,5.7c-4.6,5.7-8.1,12.8-11.7,19.4    c-3.9,7.2-7.7,14.5-10.9,22.2c-6.6,16.1-19.3,30-17.3,47.9c0.2,1.5-0.7,9.4,0.1,10.2c-1.3,4.8,12.2,6.3,16.5,6.6    c25.2,1.6,50.4,0.7,75.5-2.6c2.7-0.4,5.4-2.1,6.1-5.5c5.1-26.7,14.2-51.3,26.8-74.1C861.2,1605.4,860.1,1599.7,857.1,1598z" fill="#000000"/>
		<path class="st0" d="M1207.4,698.6c-2.6-20.5-22.4-34.2-42.3-29.8c-10.5-5.1-23.2-5.7-33.3,1c-2.2,1.4-2.9,3.9-2.5,6.1    c-2.7,1.4-5.2,3.1-7.4,5.2c-4.8,4.6,1.3,12.3,7,9.1c0,0,0,0,0.1,0c1.4,1.4,3.3,2.2,5.4,1.8c0.9-0.2,1.7-0.3,2.5-0.4    c0.5,1.7,1.2,3.4,2.3,4.9c2.7,3.8,7,6.4,11.5,6.6c-1.4,3.9-2,8.1-1.8,12.3c-0.4,0.5-0.7,1-1.1,1.4c-0.9,0.6-1.9,1.1-3,1.5    c-3.1,1.2-4.6,3.8-4.7,6.4c-1.5,1.3-3.1,2.5-4.8,3.6c-1.5-1.2-3.5-1.7-5.8-0.8c-14,5.4-28,10.8-42.3,15.8    c-23.6,3.2-47.6,4.8-71.1,8c-13.2,1.8-26.2,4.3-39,7.8c-15.7,0-31.3-0.4-46.9-1c-32.8-4.5-65.6-8.6-98.4-12.9    c-3.7-0.5-6.8,3.5-6.8,6.8c-0.1,3,0.7,5.6,2,7.8c-0.6,2.7,0.4,5.7,4,6.7c3.1,0.9,6.2,1.7,9.3,2.5c0.9,0.9,2.2,1.5,3.8,1.4    c0.6,0,1.2-0.1,1.8-0.1c5.3,1.3,10.6,2.4,15.9,3.4c1.9,0.4,3.6-0.1,4.8-1.1c7.7,1,15.6,1.8,23.3,2.4c0.3-2.3,1.2-4.5,2.8-6.1    c0.5-0.5,1-0.9,1.6-1.1c1.3-2.1,3.2-3.6,5.8-3.9c4.7-0.6,8.6,3,11.1,7.2c2.7,0.1,5.4,0.2,8.1,0.3c1.7,0.1,3.4,0.2,5.1,0.3    c-1.3,2.9-0.2,6.9,3.4,8.2c5.2,1.8,11.1,2.2,16.6,2.7c1.1,0.9,2.5,1.5,4,1.5c9.5,0.4,19,0.2,28.4-0.4c8.6-0.3,17.2-1.1,25.6-2.8    c0.2,0,0.4-0.1,0.6-0.2c22.1-3.5,43.8-9.2,65.2-16.1c1-0.2,2-0.4,2.9-0.6c10.1-2.3,20-5.1,29.8-8.6c3-0.5,6.1-1,9.1-1.6    c25.1-4.8,51-12.7,72-27.7c7.7-5.5,15.4-13.1,17.2-22.6C1203,705.2,1208,703.3,1207.4,698.6z" fill="#000000"/>
		<path class="st0" d="M1408.4,657.5c-1.3-4.3-2.6-8.6-3.9-13l-3.3-11.1c-1-3.4-1.7-7.3-3.7-10.3c-4.2-6.4-11.8-5.1-17-0.7    c-0.8,0.7-1.7,1.5-2.4,2.3c-1.1,0.4-2.1,1.2-2.9,2.4c-1.2,1.9-2.5,3.8-3.6,5.8c-0.4,0.6-0.7,1.1-1,1.7c-2.9,4.8-5.7,9.7-8.6,14.6    c-3.5,6-9.3,13.5-6.4,20.9c3,7.3,11.3,7.2,17.9,7.5c8.4,0.4,16.9,1.2,25.3,1.2c6.5,0,12.2-3.6,12.1-10.7    C1410.8,664.5,1409.4,660.9,1408.4,657.5z" fill="#000000"/>
		<path class="st0" d="M1609.8,303.5c-21.1-36.2-53.6-66.2-91.8-83.6c-84.1-38.5-187.7-14.5-249,53.9c-29.7,33.1-49.8,74.9-57,118.8    c-6.9,42.4-2.8,89.5,21.9,125.9c3.9,5.7,8.3,11.1,13.2,15.9c42.5,67.7,136.5,89.4,211.6,74.5c44.1-8.7,86.1-30.1,117.4-62.5    c30.7-31.7,51.4-73.4,57.7-117.1C1640.2,385.7,1632,341.6,1609.8,303.5z M1568.2,463.3c-1.3,5.2-3.4,10.3-5.7,15.1    c-2.9,6-12.6,1.7-10.7-4.5c1.6-5.1,3.6-10.3,6.1-15C1561,453.2,1569.7,457.2,1568.2,463.3z M1573.7,433.2    c-3.2,6.4-14,1.9-11.6-4.9c6.6-18.5,10.3-38.1,9.7-57.8c-1-34.3-15.2-67.4-40.1-91.1c-23.9-22.8-56-36.6-89-37.4    c-7.6-0.2-7.6-11.9,0-11.9c20.7,0.1,40.9,4.8,59.8,13.2c33.9,15.2,60.4,43.2,74.3,77.5C1591.3,356.2,1591.1,398.9,1573.7,433.2z" fill="#000000"/>
		<g>
			<g>
				<path class="st0" d="M313.9,782.7c-25.5,0-46.2-20.7-46.2-46.2c0-25.5,20.7-46.2,46.2-46.2c25.5,0,46.2,20.7,46.2,46.2      C360.1,761.9,339.4,782.7,313.9,782.7z M313.9,710.8c-14.1,0-25.6,11.5-25.6,25.6c0,14.1,11.5,25.6,25.6,25.6      c14.1,0,25.6-11.5,25.6-25.6C339.5,722.3,328,710.8,313.9,710.8z" fill="#000000"/>
			</g>
		</g>
		<g>
			<g>
				<path class="st0" d="M1437,1784.3c-25.5,0-46.2-20.7-46.2-46.2s20.7-46.2,46.2-46.2s46.2,20.7,46.2,46.2      S1462.5,1784.3,1437,1784.3z M1437,1712.5c-14.1,0-25.6,11.5-25.6,25.6c0,14.1,11.5,25.6,25.6,25.6c14.1,0,25.6-11.5,25.6-25.6      C1462.6,1724,1451.1,1712.5,1437,1712.5z" fill="#000000"/>
			</g>
		</g>
	</g>
	<g id="yellow_5_">
		<path class="st1" d="M885,936.8c-2.7-2.1-6.7-2.1-8.5,1.8c-3.1,6.6-6.1,13.1-9.2,19.7c-1.8,3.8-3.8,7.7-5.5,11.6    c-1.5,0-3.1,0.7-4.6,2.4c-20.2,22.7-48.7,37.9-78.9,41.5c-29.8,3.6-59.7-4.6-84.3-21.7c-13.9-9.7-25.5-22.1-34.2-36.6    c-0.6-1-1.3-1.7-2.1-2.3c-1.6-3.4-3-6.8-4.5-10.3c-1.5-3.6-5.1-4.6-7.8-3.6c-0.5-1.3-1-2.7-1.4-4.1c-2.5-7.3-13.9-4.2-11.6,3.2    c6,19.1,15.5,37.2,27.9,52.9c16,26,42.9,45.1,73,51.7c2.9,0.6,5.9,1.2,8.8,1.6c44.1,10.2,92.4-1.7,124.2-35    c18.4-19.3,30.4-44,33-70.6C900.2,930.6,887.9,929.9,885,936.8z" fill="#000000"/>
		<path class="st1" d="M542.2,1331.5c-7.5-6.6-16.6-11.9-25.6-14.4c-13-7.9-26.8-14.8-40.9-20.9c-43-23.4-90-39.3-138.5-46.8    c-23-3.6-46.2-5.3-69.5-4.8c-6.1,0.1-7.4,7.7-3.7,10.7c-0.9,0.1-1.8,0.3-2.8,0.5c-5.3,0.9-5.4,6.6-2.5,9.7c-0.8,3.5,1,7.4,5.4,6.8    c12.8-1.7,24.9-3.9,37.9-3.3c4.2,0.2,8.3,0.7,12.3,1.4c0.3,0.3,0.7,0.5,1.1,0.7c16,7.6,33.2,13.3,49.7,19.8    c10.7,4.1,21.3,8.3,32,12.5c14.2,8.2,29.9,14.7,45,20.9c0.4,1,1.2,2,2.5,2.7c9.1,5.6,18.8,10.3,28.1,15.4    c9.4,5.1,18.7,10.4,28.5,14.7c3.1,1.4,6.1,0.2,7.6-1.9c3,1.6,6,3.2,9,4.7c4.6,2.4,9.1,4.9,13.7,7.2    C535.9,1355.6,539.8,1343.7,542.2,1331.5z" fill="#000000"/>
		<path class="st1" d="M1593.2,1175.9c-5.3-10.4-11.3-20.2-18.1-29.6c-3.2-4.5-8.3-5.4-12.2-0.2c0,0-2.1,2.8-3.1,4.4    c-4.6,7-8.7,14.3-12.9,21.5c-3.3,5.5-9.5,13.7-2.5,19.1c5.4,4.2,14.2,0.5,20-0.7c8.4-1.8,16.8-3.6,25.2-5.4    C1593.7,1184.1,1594.9,1179.2,1593.2,1175.9z" fill="#000000"/>
		<path class="st1" d="M759.5,341.9c-27.4-40.5-53.4-82.1-82.9-121.1c-15.5-20.4-32.3-39.8-48.4-59.8    c-12.3-15.3-24.5-30.9-36.1-46.8c-0.5,71.4,1.6,142.8,6.2,214c1.4,21.2,2.8,42.4,5,63.5c0,0,0,0.1,0,0.1c-2,4-1,9.4,4.5,10.7    c57.4,13.7,122,0.9,168.4-36.3C770.7,358.2,765.1,350.1,759.5,341.9z" fill="#000000"/>
		<path class="st1" d="M779.3,664.5c-9.4-4.6-20.8-5.7-31.1-4.2c-8.5,1.2-20,4.2-21.5,14.3c-1.4,9.5,6.6,13.2,14.4,14.3    c5.2,2.5,10.9,3.9,16.7,4.4c8.4,0.6,19.6-0.9,26.1-6.9C791.6,679.3,787.8,668.6,779.3,664.5z" fill="#000000"/>
		<path class="st1" d="M899.9,672.9c5.8-4.1,10.8-7.4,17.1-11.2c5-3,10.2-5.8,15.4-8.5c-8.7-3.3-18.6-4-27.6-2.7    c-8.5,1.2-20,4.2-21.5,14.3c-1.1,7.9,4.1,11.7,10.3,13.4C895.4,676.1,897.8,674.4,899.9,672.9z" fill="#000000"/>
		<path class="st1" d="M1808.3,937.1c-17.1-19.5-47-14.8-69.8-15.1c-26.8-0.3-55.5-5.2-68.2-32.3c-13.3-28.3-7.5-61.8-20.3-90.4    c-5.4-12-14.1-23.1-25.7-29.4c-11.8-6.4-25.1-6.6-37.5-1.7c-28.3,11.2-41.4,42.3-52.3,68.9c-1.5,3.7-3.1,7.5-4.7,11.4    c-10.7,24.7-37.8,37.9-63.8,31.3c-5.3-1.4-10.5-2.7-15.5-3.9c-26.5-6.3-57.6-8.8-79.2,11.9c-21.9,21-15.5,53.4,2.3,74.7    c11.1,13.2,26,22.8,39.4,33.9c15.6,12.8,23,33.2,18.9,52.9c0,0.1,0,0.2-0.1,0.3c-3.1,14.6-10.2,27.8-17.5,40.6    c-13.7,24-30.3,52.3-22,81.2c3.4,11.6,10.2,22.6,20.5,28.9c11.1,6.7,24,6.7,35.9,2.2c12.9-4.8,23.7-14.1,34-23.2    c11.2-10,22.1-20.6,34.1-29.7c6.5-4.9,13.5-9.2,20.9-12.6c12.4-5.6,26.5-6.4,39.3-2c0.8,0.3,1.6,0.5,2.3,0.8    c29,11,50.3,35.7,75.6,52.9c23.1,15.7,50.4,25.6,77.6,15.6c11-4,21.5-11.6,27.7-21.9c7.3-12.1,8.4-26.7,4.8-40.2    c-4-15-12.3-28-20.4-41c-8-12.7-16.4-27.1-17.3-42.5c-1.9-33.4,36.5-42.3,58.7-55.4c11.9-7.1,22.4-16.6,27.5-30    C1818.4,961.4,1817.1,947.2,1808.3,937.1z M1719.1,949.5c-33.5-3.2-68.9-12-92.1-38.1c-10.9-12.3-18.8-27.3-22.3-43.4    c-3.5-16.2-4-36.2,3.1-51.5c2.9-6.4,11.4-1.4,10.5,4.4c-1.4,8.3-3.5,16-3.6,24.5c0,7.7,0.9,15.3,3,22.7    c3.8,13.6,11.1,26,20.9,36.1c22,22.5,52.9,26.5,82.1,33.7C1727,939.5,1725.7,950.1,1719.1,949.5z M1771.8,953.4    c-7-5.3-12.9-6.9-21.6-5.7c-2.8,0.4-5.2-2.4-5.6-4.9c-0.4-3,1.4-5.2,4.1-6.2c9.8-4,23.6-0.4,30.2,7.8    C1782.7,948.9,1777.5,957.7,1771.8,953.4z" fill="#000000"/>
		<g>
			<g>
				<path class="st1" d="M1794,616.5c-25.5,0-46.2-20.7-46.2-46.2c0-25.5,20.7-46.2,46.2-46.2s46.2,20.7,46.2,46.2      C1840.2,595.7,1819.5,616.5,1794,616.5z M1794,544.6c-14.1,0-25.6,11.5-25.6,25.6c0,14.1,11.5,25.6,25.6,25.6      c14.1,0,25.6-11.5,25.6-25.6C1819.6,556.1,1808.1,544.6,1794,544.6z" fill="#000000"/>
			</g>
		</g>
	</g>
	<g id="black_3_">
		<path d="M872.9,675.1c-1.3-11.5-3.9-22.9-6-34.2c-2.3-12.4-4.6-24.9-7-37.3c-1.4-7.4-12.4-4.2-11.2,3.1c3.3,19.5,6.8,39,10.3,58.5    c1.5,8.2,3.9,18,0,25.9c-3.4,6.8-10.6,9.6-17.9,9.7c-6.3,0-8.2,10.3-1.5,11.4c9.3,1.5,18.7-1.7,25.3-8.5    C872.3,695.9,874,685.4,872.9,675.1z" fill="#000000"/>
		<path d="M917.9,612.2c-7.9-9.2-24.1-3.3-23.3,9.2c0,0.7,0.2,1.4,0.3,2.1c0,0.9,0.1,1.8,0.3,2.7c1.3,5.3,6.2,8.5,11.5,8.9    C918.6,635.9,925.6,621.1,917.9,612.2z" fill="#000000"/>
		<path d="M775.6,622.8c-5.3-8.8-19.1-8.7-23.9,0.6c-2.4,4.7-2,10.3,1.5,14.3c1,1.1,2.2,2.1,3.5,2.7c2.3,1.8,5.3,2.9,8.6,2.6    C775.1,642.3,780.7,631.2,775.6,622.8z" fill="#000000"/>
		<path d="M1151.5,1766.1c-6.4-41.8-44.4-72.8-80.3-90.1c-21.4-10.3-44-17.6-66.6-24.7c-24.3-7.7-48.8-15.1-73.2-22.4    c-22-6.5-44-12.8-66-18.9c-2.7-0.7-5.5,0.4-7,2.8c0,0,0,0.1-0.1,0.1c-2.1,3.5-0.3,8.1,3.7,9.1c13.4,3.7,26.7,7.5,40,11.4    c23.9,6.9,47.7,14,71.5,21.4c22.8,7,45.7,13.8,68,22.3c22.8,8.6,45.4,19.8,63.6,36.3c17,15.3,28.7,34,35,55.9    C1142.3,1776.5,1152.6,1773.3,1151.5,1766.1z" fill="#000000"/>
		<path d="M1077,729.3c-4.5-18.6-17.1-36.2-31.2-48.8c-15.4-13.8-34.6-23.2-55-26.4c-41-6.5-81.8,10.3-106.4,43.7    c-6.7,9.1-13.3,20.2-14.1,31.8c-0.7,10.9,5.5,21.9,16.4,24.8c7.4,2,10.5-9.4,3.2-11.5c-8.8-2.5-8.3-13.3-5.8-20.2    c2.8-7.8,7.8-15.4,13.1-21.8c10.4-12.7,24-23,39.2-29.2c32.6-13.2,71.6-7.4,98.6,15.4c14.7,12.4,23.7,27.7,30.8,45.3    C1068.5,739.2,1078.8,736.8,1077,729.3z" fill="#000000"/>
		<path d="M940.7,683.1c-8.3,4.2-15.7,10.4-22.2,17c-6.5,6.7-12.8,14.4-16.2,23.2c-3.1,8-2.9,17.8,2.2,24.9    c5.1,7.1,14.5,10.5,22.6,6.7c4.8-2.3,2.7-11.1-2.8-10.4c-5.9,0.7-10.7-1.4-11.7-7.8c-1-6.5,2.3-12.5,5.9-17.6    c7.5-10.7,17.6-18.5,28-26.1C952.3,688.7,947.3,679.8,940.7,683.1z" fill="#000000"/>
		<path d="M979.2,699.2c4.6-4.3-1.6-12.7-6.9-8.9c-8.3,5.9-15.6,12.9-22.2,20.7c-6.2,7.3-12.6,15.3-13.8,25.2    c-2.3,18.9,17.7,34,35.1,25.5c6-2.9,1.8-12.2-4.4-10.5c-5.9,1.6-12.1,1.3-16.1-4c-4-5.3-2.8-11.7,0.2-17.1    C957.8,718,969.3,708.5,979.2,699.2z" fill="#000000"/>
		<path d="M1003.1,715.6c-7.4,8.5-15,16.4-23.8,23.4c-5.1,4,1.5,12.6,7,9c10.1-6.6,19.3-15.3,25.8-25.5    C1015.5,717.1,1007.4,710.7,1003.1,715.6z" fill="#000000"/>
		<path d="M1096.6,1185.9c-42.3-55-70.1-118.8-99.1-181.4C965.8,936,934,867.6,902.3,799.1c-3.4-7.3-9.8-17.3-5.9-25.5    c4.4-9.3,16.1-0.2,21.3,3.5c15.1,10.8,28.2,24.3,39.4,39c4.4,5.8,14.2,0.5,10-5.8c-9.8-14.6-22-27.4-35.8-38.2    c-11.6-9.1-31.3-23.6-43.6-7.5c-11.7,15.3,1.5,35.3,8.2,49.7c8.6,18.6,17.2,37.2,25.9,55.9c5.5,11.8,10.9,23.6,16.4,35.4    c-7.3-3.1-15-5.4-22.5-7c-6.7-1.4-13.6-2.2-20.5-2.4c-5.5-0.1-11.7-0.2-17.3,0.9c-2.7-8.7-4.8-17.5-6.4-26.4    c-1.7-9.3-1.9-18.7-3.4-28c0-0.2-0.1-0.3-0.1-0.5c9-5.5,16.7-12.6,22.7-21.5c4.6-6.8-6.5-13.2-11-6.5    c-18.5,27.5-55.1,32-84.3,21.5c-34.4-12.4-56.9-41.5-77.1-70.3c-4.3-6.1-14.2-0.6-10.2,5.9c29.2,48.2,85.7,100.9,146.8,77.3    c0.6-0.2,1.2-0.5,1.8-0.7c-0.2,9,1.4,18.3,2.8,27c1.6,10.2,4.1,20.3,7.3,30.2c4.9,15,12.1,35.5,28.7,41.1c5.5,1.9,10.3-6.1,5.8-10    c-5.9-5.1-10.7-9.5-14.5-16.5c-1.9-3.5-3.5-7.2-4.9-10.9c4.2-0.3,8.3-0.8,12.5-0.7c6.4,0.1,12.7,0.9,18.9,2.2    c12.3,2.7,22.8,7.8,33.6,13.9c8.7,18.9,17.5,37.7,26.2,56.6c16.3,35.2,32.2,70.5,49.3,105.3c18.4,37.4,38.7,74.1,64.6,107    C1091.2,1198.7,1100.8,1191.4,1096.6,1185.9z" fill="#000000"/>
		<path d="M1113.7,1782.2c-7.6-11.9-16.8-22.8-27-32.4c-10.1-9.5-21.2-18-33.1-25.2c-11.5-7-24.6-14.1-37.8-17.2    c-6-1.4-10.5,7.6-4.4,10.4c11.7,5.4,23.5,9.8,34.7,16.5c10.8,6.5,20.9,14.1,30,22.7c18.8,17.7,37.4,40.2,38.8,67    c0.4,7.6,11.2,7.5,11.8,0C1128,1809.2,1121.5,1794.3,1113.7,1782.2z" fill="#000000"/>
		<path d="M1049.8,1788.9c-8.4-11.1-18.3-20.8-29.5-29.1c-10.6-7.8-23.8-16.1-36.9-18.8c-6-1.3-10.4,7.3-4.4,10.4    c5.7,2.9,11.8,4.9,17.5,7.9c5.7,3,11.1,6.4,16.3,10.1c10.1,7.3,19.3,16.4,26.7,26.4c7.9,10.7,14.2,22.6,18.5,35.2    c4.4,13.2,6,26.4,7.1,40.2c0.6,7.6,11.4,7.7,11.8,0C1078.5,1842.4,1067,1811.6,1049.8,1788.9z" fill="#000000"/>
		<path d="M1142.7,1322.3c-5.6,3.3-10.7,7.4-16.4,10.6c-6,3.3-12.2,6-18.7,8c-12.8,4-25.3,4.5-38.5,4c-5.1-23.7-10.9-47.3-17.3-70.6    c-10.2-36.7-21.3-73.7-35.9-109c-2.7-6.6-13.4-4.1-11,3c10.7,31.9,21.9,63.4,31.1,95.8c9.2,32.3,17.1,65,23.7,97.9    c13.3,65.9,21.2,132.9,23.9,200.1c1.5,38,0.1,75.8-0.3,113.8c-0.1,8.1,11.6,7.8,12.3,0c3-33.6,2.3-67.9,1.3-101.7    c-1-33.9-3.4-67.7-7.1-101.4c-4.3-38.8-10.4-77.5-18.2-115.8c13.1,1.4,26.8-0.5,39.2-4.2c13.3-4,29.4-10.8,38.7-21.6    C1153.6,1326.5,1148.6,1318.9,1142.7,1322.3z" fill="#000000"/>
		<path d="M869.2,941c-11.3,32-37.1,55.8-70.2,63.9c-36.6,9-75.7-2.1-105.3-24.7c-16.2-12.4-28.9-28-40.2-44.9    c-4.2-6.2-13.9-0.7-10.1,5.9c19.4,34.2,52.8,62.3,90.5,73.6c38.7,11.6,81.5,5.6,113.3-20.1c15.7-12.7,29-30.7,34.2-50.5    C883.4,936.5,871.9,933.5,869.2,941z" fill="#000000"/>
		<path d="M743.3,1037.8c-17.9-3.9-34.5-9.9-49.6-20.4c-7.2-5-13.8-10.8-19.8-17.2c-6.5-6.9-11-14.7-16.6-22.3    c-3.5-4.7-13-2.1-10.4,4.4c3.7,9.1,10.4,17.5,16.9,24.8c6.7,7.5,14.3,14.2,22.5,20c16.2,11.6,35.6,19.9,55.5,22.2    C748.3,1050,749.7,1039.2,743.3,1037.8z" fill="#000000"/>
		<path d="M1265.6,1088.7c-4.5-23.8-12.5-47.6-24.8-68.6c-3.8-6.5-13.5-0.8-10.1,5.9c18.7,37,28.9,76.7,26.7,118.4    c-2,38.7-14.8,76.4-36.1,108.7c-11.9,18.1-26.5,33.3-42.3,47.9c-4.7,4.3,1.7,13.1,7,9.1c31.4-24.2,54.9-59.7,69-96.5    C1270.1,1174,1273.4,1130.4,1265.6,1088.7z" fill="#000000"/>
		<path d="M1208.1,956c-18.3-30.6-37-60.9-55.5-91.3c-9.2-15.1-18.4-30.1-27.5-45.2c-4.5-7.4-0.3-0.4-4.8-7.7    c-4.8-7.9-9.3-16.3-14.8-23.7c-4.3-5.8-13.1-1-9.8,5.7c4,8.3,9.5,16.1,14.2,24.1c4.5,7.4,0.3,0.4,4.8,7.8    c9.2,15.1,18.3,30.1,27.5,45.2c18.5,30.4,36.9,60.9,55.6,91.2C1201.8,968.6,1212.1,962.7,1208.1,956z" fill="#000000"/>
		<path d="M1577.3,1200.8c-1.4-7.4-12.4-4.2-11.3,3.1c15.6,98-12.8,199.3-80.2,272.7c-32.6,35.4-72.1,61.4-115.8,81.2    c-45.2,20.5-93.1,36-135.4,62.6c-40.9,25.8-77.9,62.3-90.4,110.4c-1.9,7.4,9.5,10.5,11.4,3.2c11.5-42.9,43.7-75.9,80-99.6    c42.1-27.5,90.2-43.1,135.9-63.3c44.5-19.7,85.2-45.4,119-80.7c32.2-33.7,57.3-74,73.1-118    C1583.1,1317.7,1588.2,1257.8,1577.3,1200.8z" fill="#000000"/>
		<path d="M842.9,749.1c1,0.1,2.1,0.3,3.1,0.4c0,0,0,0,0,0c1.7,0.4,3.4,0.7,5,1.1c3.9,0.9,7.7,2,11.7,2.4c6.9,0.7,7.2-9.2,1.5-11.3    c-2.6-1-8.4-1.6-10.8-2.1c-9.9-2.1-19.5-3.9-29.3-6.5c-9.4-2.6-18.2-6.4-26.7-10.9c-3.9-2.1-7.6,0.5-8.6,3.7c0,0,0,0,0,0    c-0.6,0.9-1,1.9-1,3.1c0,6,1.6,12.2,4.4,17.7c3.9,9.3,11.8,17.8,19,23.2c10.4,7.8,24.3,12.5,37.4,11.5c1.3,0,2.7,0,4,0    c2.8,0.1,5.6,0.1,8.3-0.1c6-0.6,8.2-9.6,1.5-11.2c-5.6-1.3-11.9-1.7-18-1.9c-1.3,0-3.4-0.4-4.6-0.9v0c-6.5-2.5-8.6-8.4-6.5-13.1    C835.1,750.6,839,748.6,842.9,749.1z" fill="#000000"/>
		<path d="M1151.6,696.9c-5.3-6-13.8-8.6-21.5-9.4c-6.9-0.8-7.1,9.2-1.5,11.3c5.3,2,13.4,2.9,15.7,9.1c2.1,5.7-5.3,8.5-9.4,10.3    c-13.8,5.9-28.2,10.6-42.6,14.6c-14.2,3.9-28.7,7-43.3,9.1c-15.4,2.3-30.7,2.7-46.2,3.9c-7.3,0.6-7.4,11.1,0,11.5    c18.2,0.9,37-1.6,54.9-4.5c18.5-3,36.8-7.4,54.6-13.2c8.8-2.9,17.4-6.1,25.9-9.6c6.6-2.7,13.5-5.9,16.9-12.6    C1158.7,710.4,1156.6,702.5,1151.6,696.9z" fill="#000000"/>
		<path d="M1196,670.7c-0.4-0.6-1-1.2-1.7-1.7c-18.1-12.3-43-13.3-62.1-2.8c-17.3,9.4-30.9,29.2-31.1,49.3    c-0.1,6.5,10.6,8.3,11.6,1.6c2.6-16.6,9.8-31.4,25-40c14.1-7.9,31.1-7.5,45.4-0.7c0.5,0.5,1.1,1,1.8,1.4    c13.1,6.9,18.7,23.4,10.7,36.2c-8.5,13.5-26.5,19.1-40.6,24.3c-38.3,14.2-77.9,24.6-118.2,31.2c-22.9,3.7-45.9,5.9-69,7.3    c-7.6,0.5-7.7,12.2,0,11.9c45.6-1.7,91.2-9.3,135.2-21.1c22-5.9,43.6-13,64.8-21.2c15.7-6.1,33.2-14.2,40.5-30.5    C1215.4,700.2,1210.1,680.3,1196,670.7z" fill="#000000"/>
		<path d="M1198.3,609.6c-4.4,11.6-5.6,24.5-4.9,36.8c0.5,7.5,12,7.6,11.8,0c-0.4-11.6,1.3-22.6,4.1-33.8    C1211.2,605.3,1200.9,602.8,1198.3,609.6z" fill="#000000"/>
		<path d="M1236.8,651.2c-7.7,5.3-15.3,11.3-22.3,17.4c-5,4.3,1.6,13,7.1,9.2c7.7-5.4,15.3-11.2,22.4-17.4    C1248.8,656,1242.3,647.5,1236.8,651.2z" fill="#000000"/>
		<path d="M938.8,425.2c-15.1-28.3-40.6-50.5-68.6-65.5c-14.9-8-31-14.6-47.4-18.6c-4.9-1.3-7.5-3.3-10.3,0.6    c-35.2,48.7-92.6,78.2-152.6,78.5c-18.5,0.1-36.6-2.6-54.4-7.4c-1.1-0.3-2.1-0.3-3.1-0.1c-1.8-0.1-3.7,0.7-4.9,2.9    C580,444.6,572,479.9,570,513.5c-2.2,35.6,3,71.4,12.6,105.7c5.4,19.4,11.6,39.6,20.6,57.7c0.4,0.8,0.9,1.4,1.4,1.8    c4.1,15.6,13.3,30,26.6,39.4c9.7,6.9,21.5,10.8,33.2,10.7c-0.2,1.1-0.1,2.4,0.5,3.6c19.6,44.6,17.2,98.1-5.9,141    c-23.2,43.1-65.4,71.5-108.2,92.8c-49,24.3-101.8,40.9-148.1,70.5c-38.6,24.7-71.7,57.7-97,95.8c-26.7,40.2-46.1,87.4-52.1,135.5    c0,0,0,0.1,0,0.1c-1.4,5.9-1.7,12.3-1.3,18.5c0,0,0,0,0,0c-2.6,12,2.1,25.7,14.4,31.9c1.8,0.9,3.6,0.9,5,0.2    c-15,47.7-27.4,96.4-30.9,146.4c-3.8,55,5,111.7,31.6,160.5c12.5,22.9,29,43.8,49.3,60.2c23.1,18.7,50.2,31.1,78.5,39.5    c30.1,8.9,61.3,13.8,92.2,18.3c34.1,5,68.4,9.1,102.8,12.2c69.3,6.2,138.9,8.3,208.4,6.4c8.5-0.2,103.6,4,112.1,3.4    c7.6-0.5,7.8-12.1,0-12c-6.3,0.1-99.2-4.4-105.5-4.3c1.2-20.2,6.8-38.8,15-57.2c4.5-3.4,7.2-8.4,5.5-15.4    c-1.5-6.4-11.5-5-11.4,1.5c0,1.9-0.7,3.3-1.8,4.5c-0.2,0.2-0.5,0.4-0.7,0.6c-4.8,3.7-15.1,3.2-19.7,3.5c-10.8,0.7-21.7,0.7-32.5,0    c-5.3-0.4-20.4,0.4-23-6c-1.5-3.7,1.2-9.3,2.4-12.7c1.9-5.2,4.2-10.3,6.7-15.2c3.3-6.8-6.6-12.7-10.2-6c-3.4,6.3-6.3,13-8.7,19.7    c-2.2,6.1-3.8,12.7-1.3,18.9c2.2,5.4,6.5,8.4,11.5,10.2c-7.8,16.6-12.6,36.3-13.4,54.5c0,0,0,0,0,0c-34.1-0.5-68.1-2-102.1-4.4    c-33.5-2.4-67-5.8-100.4-10c-31.8-4.1-63.7-8.5-95-15.4c-28.7-6.3-57.1-15.3-82.3-30.6c-22.3-13.6-41.1-32.2-55.5-53.9    c-28.7-43.1-41-95.7-40.7-147.1c0.4-65.8,19.2-129.5,39.2-191.6c2.2-6.8,4.4-13.7,6.6-20.5c14.6,1.9,29.1,7.1,42.4,12.5    c19.7,8.1,38.7,17.9,57.9,27c19.7,9.4,39.4,18.8,59.1,28.2c17.6,8.4,35,17.4,52.8,25.4c0,0.2-0.1,0.3-0.1,0.5    c-3.1,26-7.2,51.8-12.3,77.5c-2.5,12.6-5.3,25.2-8.3,37.7c-3,12.3-7.3,24.6-9.6,37c-4.3-0.7-8.5-1.5-12.8-2.2    c-7.5-1.3-10.7,10.1-3.2,11.4c98.6,17.8,196.6,38.4,293.8,62.8c0.8,0.2,1.7,0.4,2.5,0.6c2.4,0.6,4.9-0.3,6.4-2.2    c0,0,0.1-0.1,0.1-0.1c2.7-3.5,1-8.7-3.4-9.8c-42.1-10.6-84.5-20.5-126.9-29.8c-48-10.4-96.1-20.1-144.5-28.7    c4.4-11.7,6.8-24.7,9.7-36.7c3.1-12.8,5.9-25.7,8.4-38.7c4.8-24.7,8.6-49.6,11.3-74.6c1,0.4,1.9,0.8,2.9,1.2    c6.3,2.6,10.4-7.7,4.6-10.9c-21.9-12.1-45.3-21.9-67.9-32.7c-22.1-10.5-44.2-21-66.3-31.5c-23.1-10.9-46-22.7-70.5-30.3    c-9.2-2.9-18.6-4.8-28.2-5.9c-9.8-1.1-20.1-1.3-29.2,3.1c-0.3,0.1-0.6,0.3-0.9,0.5c7.4-42.6,21.6-83,44.6-120.1    c24.3-39.2,57-73.4,95.7-98.7c46.4-30.3,99.7-47.1,149.2-71.4c43.4-21.4,85.9-50,111-92.4c28.1-47.4,31.1-107.7,8.9-157.9    c3.2-0.8,6.4-1.9,9.4-3.3c6.9-3.3,0.9-13.4-6-10.2c-25,11.4-52.7-9.2-61-32.4c-4.8-13.5-4.5-28.5,1.2-41.7c2.2-5.2,5.5-12,11-14.4    c6.1-2.7,12.7,2.8,16.9,6.7c11.2,10.6,17.2,24,20.4,38.9c0.6,2.7,2.8,4,5.2,4.1c1.6,0.9,3.5,1.1,5.6,0.2    c7.5-3.4,10.1-10.6,11.2-18.1c3.5-12.3,5.3-25.6,7.1-38c2.4-16.5,4-33.1,4.5-49.7c0.6-16.4,0.3-32.7-0.9-49.1    c-0.6-8.2-1.4-16.3-2.5-24.4c-0.3-2.2-0.5-4.3-0.8-6.5c8,7.3,18.4,12.2,28.1,16.7c16.8,7.9,34.3,14.4,52.3,19.4    c35.3,9.8,72.6,13.3,109.2,10.5c10.3-0.8,20.6-2.1,30.8-3.8c4.3-0.7,8.9-1.4,13.4-2.3c0.5,4.2,1,8.4,1.3,12.5    c1,12.1,1.7,24.3,2,36.4c0,0,0,0,0,0c-2.8-7.5-7.6-13.4-14.1-18.1c-6-4.4-14.6-8.3-22.1-7.6c-6.1,0.6-8,9.2-1.5,11.1    c5.9,1.7,11.2,2.6,16.3,6.2c4.8,3.4,8.4,8.2,11.2,13.3c2.4,4.3,8.6,3,10.3-0.7c0.2,9.7,0.2,19.5,0,29.2    c-0.1,5.9-0.3,11.8-0.6,17.7c-0.3,6.1-1.3,12.5-0.9,18.6c0.4,6.3,10,8.4,11.5,1.6c2.6-11.4,2.1-24.3,2.4-35.9    c0.3-12.1,0.3-24.3-0.1-36.4c-0.4-11.8-1.1-23.6-2.2-35.3c-0.5-5.2-0.9-10.5-1.4-15.8c1.8-0.6,3.5-1.4,5.2-2.2    c2.2-1.1,3.1-3.2,3-5.3c0-0.1,0.1-0.3,0.1-0.4C960,487.6,953.7,453.4,938.8,425.2z M744.9,1724c2.3-8.9,5.7-17.3,9-25.8    c2.6,0.3,5.2,0.4,7.6,0.6c15.2,1.3,30.7,1.2,45.9-0.5c0.5-0.1,1.1-0.1,1.6-0.2c-6.8,16.2-10.2,34.2-10.9,51.5    c-19.3,0.4-38.6,0.7-57.9,0.7C741.4,1741.5,742.6,1732.7,744.9,1724z M682.4,602.1c-0.5,3.9-0.8,7.9-1.8,11.7    c-1.5,6.3-11.3,4.8-11.1-1.5c0.1-3.4,0.6-6.8,1-10.2c0.4-3.2,2.4-6,6-6C679.4,596.1,682.8,598.9,682.4,602.1z M687.3,574.9    c-0.9,6.4-11.7,4.8-11.3-1.5c1.9-28.4,1.1-56.7-4.8-84.6c-1.5-7.4,9.7-10.5,11.3-3.1C689.2,514.9,691.4,545.1,687.3,574.9z     M834.1,510c-16.5-0.2-33.1-3-48.9-7.3c-15.7-4.3-31.9-10-45.8-18.4c-6.4-3.8-0.8-12.7,5.7-9.8c14.3,6.4,28.2,12.6,43.3,16.6    c15,4,30.3,6.2,45.7,7.5C841.3,499.3,841.5,510.1,834.1,510z M891,511.3c-6.6-0.1-13.2-0.6-19.8-1.4c-7-0.8-7.4-11.4,0-11.3    c6.6,0.1,13.2,0.5,19.8,1.3C898,500.8,898.5,511.4,891,511.3z" fill="#000000"/>
		<path d="M1001.2,1805.9c-33.6,22.2-71.6,37.1-111.3,43.8c-20.7,3.5-41.6,3.7-62.6,4.2c-19.9,0.5-40.2,1.8-59,8.6    c-18.3,6.6-35.2,18-44.9,35.3c-3.7,6.6,6.1,12.3,10.1,5.9c20.5-32.9,62.7-36.6,97.7-37.3c20.5-0.4,40.9-1.1,61.2-4.4    c19.2-3.2,38.1-8.3,56.3-15.3c20.6-8,40.2-18.1,58.6-30.5C1013.6,1811.9,1007.6,1801.6,1001.2,1805.9z" fill="#000000"/>
		<path d="M1022.3,1830.3c-10.5,9.5-21,18.3-33.4,25.3c-12.4,7.1-25.7,12.5-39.5,16c-29.9,7.6-61.3,4.6-91.3,12    c-15.4,3.8-30,10.3-41.8,21.1c-5.7,5.2,2.6,13.3,8.4,8.4c22.9-19.6,54.2-21.3,82.8-23.4c15.4-1.1,30.9-2.5,45.9-6.4    c13.5-3.5,26.5-8.8,38.7-15.5c13.9-7.7,27.6-17.4,38.4-29.1C1035.7,1833,1027.9,1825.2,1022.3,1830.3z" fill="#000000"/>
		<g>
			<path d="M1369.3,704c-4.4,64.7-33.3,124.4-67.7,178c-35.5,55.3-77,105.1-109.9,161.7c-32.2,55.6-56.3,116.9-51.6,182.5     c4.9,69.3,39.5,132.4,44.1,202.7c2.5,37.5-5.6,77.3-17.6,113.9c-12.5,37.9-29.5,75.8-42.9,113.4c-3.4,9.4-6.9,18.4-9.7,27.5     c-2.2,7.4,8.2,11.3,11,3.8c14.1-37.7,29.2-75.3,43.4-113.4c13.6-36.6,25.3-76,27.9-114.6c2.5-36.9-4.7-71.3-13.9-105.9     c-9.1-34-20.8-66.6-26.7-100.9c-5.7-32.9-5.1-65.4,2.4-97.7c7.3-31.4,19.7-60.6,35-88.8c31.3-57.9,72.5-108.3,109.2-163.2     c35.5-53,67.6-111.5,76.7-175.8c1.1-7.8,1.8-15.9,1.8-23.7C1380.7,695.9,1369.8,696.6,1369.3,704z" fill="#000000"/>
		</g>
		<path d="M797.3,319.6c-41.2-47.4-82.5-94.8-123.7-142.1c-0.5-1.2-1.4-2.2-2.5-2.8c-10.4-11.9-20.8-23.9-31.2-35.8    c-14.9-17.1-29.7-34.1-44.7-51.1c-1.1-1.2-2.3-1.8-3.5-1.9c-3.6-1.2-8.2,0.5-8,5.4c3.4,77.9,6.8,155.7,10.3,233.6l3,66.6    c0.4,8,12.8,8,12.4,0c-2.5-56.1-5.1-112.1-7.6-168.2c10.1-9.8,18.5-21.4,25-34c5.1-9.8,10.1-21,12.6-32.2    c7.2,8.3,14.5,16.7,21.7,25c-4.4,13.1-9.3,25.8-15.8,38.1c-7.3,13.5-16.3,25.5-25.5,37.7c-4.2,5.5,4.8,12.1,9.5,7.3    c11-11.4,20-25.4,27.4-39.3c5.5-10.4,10.4-21.5,13.9-32.9c10.8,12.4,21.7,24.9,32.5,37.3c-3.4,10-6.7,19.8-11.4,29.4    c-4.9,10-10.7,19.6-17.3,28.6c-13,17.8-29.5,33.1-47.5,45.6c-6,4.1-0.6,13.7,5.8,9.9c20.4-12.3,37.6-28.7,51.7-47.8    c11.9-16.1,22.5-35.1,28.3-54.7c10.5,12,20.9,24,31.4,36c1.8,2.1,3.6,4.1,5.4,6.2c-7.9,15.6-16,30.7-26.9,44.5    c-11.8,14.8-25.3,28.8-40.5,40.1c-6.1,4.6-0.4,15,6.1,10.5c16.8-11.8,31.9-25.3,44.5-41.6c10.1-13,19.5-27.6,25.9-43.1    c10,11.5,20.1,23.1,30.1,34.6C793.8,334.4,802.5,325.6,797.3,319.6z M623.9,164.9c-2.3,6.5-5,12.8-8.3,18.8    c-4.2,7.9-9.2,15.3-14.6,22.3c-0.7-16.1-1.5-32.1-2.2-48.2c-0.8-16.8-1.6-33.6-2.4-50.4c11,12.8,22,25.5,33,38.2    C627.4,151.9,626.2,158.5,623.9,164.9z" fill="#000000"/>
		<path d="M772.6,561.1c-18.9-6-40.2,3.5-47,22.5c-2.2,6.2,7.7,10.4,10.7,4.5c6.5-12.8,18.8-19.9,33.3-16    C776.7,574,779.6,563.3,772.6,561.1z" fill="#000000"/>
		<path d="M435.9,575.9c-10.9-31.7-39.1-56.9-72.3-62.8c-1.5-0.3-3.1-0.5-4.7-0.7c-8.6-15.3-23.2-27.5-37.8-36.7    c-14.2-9-30-15.5-46.3-19.5c-37.4-9-78.8-5.1-112.1,14.9c-6.6,4-0.8,13.7,6,10.3c49.9-24.6,113.1-20.5,157.2,14.5    c5.9,4.7,11.9,10.1,16.6,16.2c-11,1.1-21.6,5.1-28.9,13.9c-9.9,12-11.8,31.9,1.3,42.5c13.2,10.6,33.3,6.4,43.2-6.6    c7.8-10.3,9.2-23.5,6.2-35.8c27.1,5.8,50.7,26.9,60,52.9C426.9,586.3,438.4,583.3,435.9,575.9z M336.2,561.2    c-13.2,2.5-20.9-9.2-16.1-21c4.8-11.8,17.8-15.5,29.7-15.5c0.8,1.9,1.4,3.9,1.9,6C354.7,543,350.1,558.6,336.2,561.2z" fill="#000000"/>
		<path d="M1221.7,175c-34.9-4.1-69.8,11.4-90.8,39.3c-6.4,8.5-11.5,18.1-14.9,28.3c-4.2-0.2-8.4,0.1-12.5,1    c-15.1,3.1-27.6,14.1-36,26.5c-22.5,33.3-20.8,80.1-3.9,115.2c3.3,6.9,13.2,0.9,10.1-5.9c-12.1-26.9-14.6-58.8-4.2-86.6    c6.9-18.5,22.7-37.4,43.2-37.9c-0.4,1.8-0.7,3.6-1,5.4c-2.3,16-1.7,36.8,15.1,44.9c15.6,7.5,30-4.7,31.9-20.3    c1.7-13.8-6.1-26.4-17.2-33.9c-4-2.7-8.4-4.8-13.1-6.2c2.8-7.6,6.6-14.9,11.3-21.6c18.4-26.1,50.6-39.3,82-36.7    C1229.2,187.1,1228.9,175.9,1221.7,175z M1144.4,271.7c3.6,7.2,2.9,25.7-9.4,23.4c-14.8-2.8-12.7-24.8-10.7-35.5    c0.2-1,0.4-2.1,0.6-3.1C1133,259.1,1140.5,264.1,1144.4,271.7z" fill="#000000"/>
		<path d="M1793.1,1678.3c-16.6-27.5-43.8-53.4-75.3-63.8c-2.9-11.1-8.3-21.8-14.6-30.9c-24.8-36-70.2-58.6-114.1-53    c-7,0.9-7.4,11.8,0,11.3c33.3-2.5,66.5,9,90.5,32.4c10.5,10.2,19.4,22.9,24.4,36.8c-1-0.2-1.9-0.3-2.9-0.5    c-20.5-2.9-42.3,5.2-49.4,26.1c-6.2,18.1,6.5,35.5,24.7,38.2c19.6,2.9,35.8-11.4,41.4-29.4c1.6-5.4,2.3-10.9,2.2-16.3    c25,10.6,46.4,30.8,60.6,53.4c18.8,29.9,26.8,66.2,20.8,101.2c-1.3,7.4,9.8,10.7,11.4,3.2    C1820.9,1749.8,1812.5,1710.5,1793.1,1678.3z M1688.7,1661.9c-12.7,4.5-29.4-4.6-26-19.5c4.4-19,25.8-22.4,42-18.5    c0.9,0.2,1.7,0.4,2.6,0.7C1708.8,1639.4,1703.8,1656.6,1688.7,1661.9z" fill="#000000"/>
		<path d="M798.8,1667.3c-11.4-1.8-23.1-2.5-34.7-3.4c-7.6-0.6-7.4,11,0,11.7c11,1.1,22.1,2.7,33.2,3    C803.6,1678.7,805.3,1668.3,798.8,1667.3z" fill="#000000"/>
		<path d="M836.8,1601c-7.3,2.1-14.3,6.2-21.2,9.4c-7,3.3-14.7,6.1-21.3,10.2c-1.3,0.8-2,1.9-2.4,3.1c-1.3,1.7-1.8,4-0.3,6.2    c2.9,4.1,6.1,8.1,9.2,12.1c3.1,4,6.1,8.5,9.7,12.1c4.7,4.7,12.8-1.3,9.3-7.2c-2.6-4.3-6.1-8.2-9.2-12.1c-1.7-2.1-3.3-4.2-5-6.3    c4.9-2.1,9.6-4.5,14.4-6.7c7-3.2,14.9-5.9,21.3-10.1C846.8,1608.2,843.5,1599,836.8,1601z" fill="#000000"/>
	</g>
</g>
</svg>