<svg xmlns="http://www.w3.org/2000/svg" viewBox="0 0 300 300"><defs><style>.cls-1{fill:#933e1f;}.cls-2{fill:#acacac;}.cls-3{fill:#efb1b4;}.cls-4{fill:#4f4f50;}.cls-5{fill:#dfdad5;}.cls-6{fill:#a0a0e0;}.cls-7{fill:#eae6e4;}.cls-8{fill:#e99da5;}.cls-9{fill:#4d4d4d;}.cls-10{fill:#686868;}</style></defs><g id="teamwork02"><path d="M256,229.89h10.39l-.07,8.9-4.59,0,0-2.46s-15.45,2.85-19.61,2.26c0,0-2.61-4.6,4.48-3.57C249.81,235.45,256,229.89,256,229.89Z"/><path d="M254.31,185.67a183,183,0,0,1,14.19,45.16l-11.47,0-6-26.16Z"/><path class="cls-1" d="M246.73,229.89h10.39l-.07,8.9-4.58,0,0-2.46s-15.44,2.85-19.6,2.26c0,0-.6-5.24,6.49-4.2C242.6,234.81,246.73,229.89,246.73,229.89Z"/><path class="cls-2" d="M242.23,154.53l-1.89,76.27h18.48s-3-18.19-4.35-30.11c-3-27.41,14-30.2,6-46.16Z"/><polygon points="242.7 144.8 228.22 144.8 227.65 133.18 244.41 142.13 242.7 144.8"/><path class="cls-3" d="M254.79,114.14l-.35,7.12a5.34,5.34,0,0,0,2.82,1.49l4.25-1.2.12-8.07Z"/><path d="M261.42,115.26l-6.72.44-.07,1.58c.29.34,1,.56,2.3.42A8.81,8.81,0,0,0,261.42,115.26Z"/><path class="cls-3" d="M263.2,112.1a5.6,5.6,0,0,0-10.64-3.29l-1-.33.82.84-.12.39a5.6,5.6,0,0,0,9.16,5.55,2.5,2.5,0,0,0,.38.15,1.82,1.82,0,0,0,1.41-3.31Z"/><ellipse cx="257.74" cy="110.01" rx="0.91" ry="0.54" transform="translate(-5.8 205.31) rotate(-42.99)"/><path d="M257.37,111a.66.66,0,0,1-.49-.19c-.3-.33-.16-.93.32-1.38h0a1.61,1.61,0,0,1,.69-.39.72.72,0,0,1,.7.17c.31.33.17.94-.31,1.38A1.39,1.39,0,0,1,257.37,111Zm.74-1.47-.1,0a.94.94,0,0,0-.46.26h0c-.3.27-.36.58-.29.65s.37,0,.67-.24.35-.58.29-.65A.16.16,0,0,0,258.11,109.53Zm-.74.09h0Z"/><ellipse cx="254.49" cy="108.32" rx="0.62" ry="0.31" transform="translate(-5.52 202.64) rotate(-42.99)"/><path d="M254.19,109.06a.44.44,0,0,1-.34-.14c-.23-.24-.12-.67.25-1h0a1,1,0,0,1,.71-.32.42.42,0,0,1,.32.14.39.39,0,0,1,.12.33,1,1,0,0,1-.37.68A1.08,1.08,0,0,1,254.19,109.06Zm.06-.45Zm.2-.33h0a.92.92,0,0,0-.18.25.79.79,0,0,0,.26-.16.74.74,0,0,0,.18-.25A.9.9,0,0,0,254.45,108.28Z"/><path d="M262.85,112.8a1.21,1.21,0,0,1,.41.58,1,1,0,0,1,0,.78.9.9,0,0,1-.66.48,2.32,2.32,0,0,1-.37,0,3.38,3.38,0,0,1-.34-.11c.22-.11.42-.18.58-.28a.72.72,0,0,0,.32-.33A2.44,2.44,0,0,0,262.85,112.8Z"/><path d="M259.13,105.38a6,6,0,0,0-4.87,1.07l-.45.3.51.16a5.23,5.23,0,0,0,4.18-.1c0,.88.19,2.11,2,3.85A7.43,7.43,0,0,0,263,112l.24.12.09-.31A5.58,5.58,0,0,0,259.13,105.38Z"/><path d="M257,109.16c-.82,0-1.63,0-2.44,0s-1.61-.08-2.42-.16l.21-.42a34.86,34.86,0,0,1,2.49,3.18,33.45,33.45,0,0,1-2.87-2.84l-.42-.47.63,0c.81,0,1.62.14,2.42.24S256.16,109,257,109.16Z"/><path d="M258.36,112.22c-.14,1-1.54,2.32-3.44.94,0,0,.88,1.66,2.4,1.38S258.36,112.22,258.36,112.22Z"/><path d="M232.42,129.08c4.13-4.12,19-9.94,33.33-10.44L270,131.73l-7.69,25.89H240.16l2.07-21.09Z"/><path d="M39,167.47l-12.6,18.45s-2.22-15,3.81-20.84c6.25-6.1-3.08-2.65-3.08-2.65V153l12.56,5.2Z"/><path d="M87.72,137.77,92.39,178H37.44V156.54s18.86.25,35,7.8Z"/><polygon class="cls-3" points="91.34 92.53 91.52 96.61 91.74 100.56 83.8 102.19 84.63 99.93 84.51 91.87 91.34 92.53"/><path d="M84.72,93.65l6.7.57.06,1.44c-.29.34-.94.57-2.29.43A8.76,8.76,0,0,1,84.72,93.65Z"/><path d="M89.94,96.13a6.75,6.75,0,0,1-.75,0c-2.32-.24-4.45-2.41-4.47-2.43h0l6.7.56h0l.06,1.44A1.94,1.94,0,0,1,89.94,96.13Zm-5.2-2.47a8.68,8.68,0,0,0,4.45,2.42c1.17.12,1.94,0,2.28-.42l-.06-1.44Z"/><path class="cls-3" d="M82.94,90.48a5.61,5.61,0,0,1,10.64-3.29l.2.47c0,.06.09.36.11.43a5.61,5.61,0,0,1-9.17,5.56,2.15,2.15,0,0,1-.38.15,1.82,1.82,0,0,1-1.4-3.32Z"/><path d="M88.94,87.82c-.48-.45-1.09-.54-1.39-.22s-.17.93.31,1.38a1.39,1.39,0,0,0,.91.41.67.67,0,0,0,.49-.19c.31-.33.17-.93-.32-1.38Z"/><path d="M92,86.29c-.38-.34-.81-.42-1-.18s-.11.67.26,1a1.08,1.08,0,0,0,.69.32.44.44,0,0,0,.34-.14C92.52,87.07,92.41,86.64,92,86.29Z"/><path d="M83.29,91.18a2.48,2.48,0,0,0,.08,1.14.72.72,0,0,0,.32.33c.16.1.36.16.58.28a1.91,1.91,0,0,1-.34.1,2.32,2.32,0,0,1-.37,0,.87.87,0,0,1-.66-.47,1,1,0,0,1,0-.79A1.19,1.19,0,0,1,83.29,91.18Z"/><path d="M91.88,84.84A6,6,0,0,0,87,83.76a5.58,5.58,0,0,0-4.23,6.47l.06.28.27-.09a7.62,7.62,0,0,0,2.53-1.37c1.81-1.74,2-3,2-3.85a5.21,5.21,0,0,0,4.17.1l.52-.16Z"/><path d="M94,86.91c-.8,0-1.61.13-2.41.23s-1.6.23-2.4.41c.82,0,1.63,0,2.44,0,.61,0,1.22-.06,1.82-.11a33.29,33.29,0,0,0-2.1,2.72,33.34,33.34,0,0,0,2.86-2.84l.43-.47Z"/><path d="M50.26,207.52l18.45,12.6s-15,2.21-20.84-3.81c-6.1-6.25-2.65,3.08-2.65,3.08H35.78L41,206.83Z"/><path class="cls-4" d="M91.4,136.37,60.78,208.18H36.43A57.94,57.94,0,0,1,58.32,177c10.88-7.78,4.93-34.54,12.64-41.61l5.94-2.61Z"/><path d="M97.74,124.86v14.32l-29.35-4.13s2.37-36.26,17-37.75c11.51-1.17,12.57,10.84,20.66,8.83S116.4,103,116.4,103l.28,13.32Z"/><ellipse class="cls-4" cx="173.1" cy="43.74" rx="28.79" ry="32.78" transform="translate(97.92 205.68) rotate(-79.28)"/><polygon class="cls-2" points="116.4 142.79 104.58 142.79 104.58 157.19 92.39 157.19 92.39 178.03 80.23 178.03 80.23 198.55 68.71 198.55 68.71 220.12 56.84 220.12 56.84 239.69 43.89 239.69 43.89 264.61 116.4 142.79"/><polygon points="46.43 267.38 121.24 138.96 116.78 136.37 40.6 267.15 46.43 267.38"/><polygon class="cls-1" points="229.1 82.24 113.82 82.24 112.79 198.55 230.13 198.55 229.1 82.24 229.1 82.24"/><path d="M226.52,194.94a12.58,12.58,0,0,1,3.61,3.61,12.93,12.93,0,0,1-3.61-3.61Z"/><path d="M113.82,82.24a11.49,11.49,0,0,1,3.43,3.42,10.11,10.11,0,0,1-1.9-1.53A10.81,10.81,0,0,1,113.82,82.24Z"/><path d="M225.68,85.66a10.38,10.38,0,0,1,1.53-1.89,10,10,0,0,1,1.89-1.53,11.61,11.61,0,0,1-3.42,3.42Z"/><path d="M112.79,198.55a11.23,11.23,0,0,1,1.63-2,11.11,11.11,0,0,1,2-1.62,11.56,11.56,0,0,1-1.62,2A11.23,11.23,0,0,1,112.79,198.55Z"/><polygon class="cls-5" points="225.52 85.85 226.49 194.94 116.43 194.94 117.4 85.85 225.52 85.85 225.52 85.85"/><polygon class="cls-6" points="226.35 179.56 226.49 194.94 116.43 194.94 116.68 166.99 226.35 179.56"/><ellipse cx="137.45" cy="148.18" rx="22.66" ry="18.4" transform="translate(-64.52 140.59) rotate(-45)"/><polygon points="226.36 180.07 116.68 167.5 116.69 166.48 226.35 179.05 226.36 180.07"/><polygon points="159.4 171.98 153.67 85.85 154.7 85.85 160.43 171.91 159.4 171.98"/><polygon points="156.95 128.82 117.05 125.37 117.06 124.34 157.04 127.8 156.95 128.82"/><path d="M226.35,179.56l-.67-93.9s-55.33,9.25-58,45C164.46,173.91,226.35,179.56,226.35,179.56Z"/><polygon points="225.68 85.66 180.33 106.13 154.19 85.85 225.68 85.66"/><path class="cls-7" d="M217.07,178.5l30.81-86.83s-50.61-9.26-66.48,20.22C161.86,148.18,217.07,178.5,217.07,178.5Z"/><path class="cls-7" d="M225.68,85.66q-3.09.63-6.12,1.47c-2,.53-4,1.12-6,1.75-4,1.26-7.93,2.68-11.78,4.33a97,97,0,0,0-11.21,5.63l-2.67,1.65c-.9.53-1.71,1.19-2.58,1.78-1.76,1.15-3.31,2.56-5,3.86a64.08,64.08,0,0,1,10-7.63,90.48,90.48,0,0,1,11.21-5.76,113.85,113.85,0,0,1,11.86-4.24A101.45,101.45,0,0,1,225.68,85.66Z"/><path class="cls-3" d="M160.66,41.22s-6,5.56-3.61,19.37c1.8,10.31-7.41,12.09-7.89,16.74l8.26,3.08s9.36-11.86,7.57-18.83C162,50,160.66,41.22,160.66,41.22Z"/><path class="cls-6" d="M168.32,92.76C187.33,79.39,216,78.41,216,78.41l-70.9-9.18,23.27,23.53Z"/><path class="cls-3" d="M150.86,75.13s3.63-2.2,5.14-2.45c1.05-.17,2.11.61,1,1.48.86-.5,1.78.36,1.78.36a1.21,1.21,0,0,1-.36,1.91,1.46,1.46,0,0,1,1.83.31c1,1.4-2.84,3.67-2.84,3.67s2.31-1.68,3.11-.59-4,4.14-4,4.14-3,1.52-4.74-1C149.28,79.23,147.83,76.65,150.86,75.13Z"/><path d="M157,74.16a19.22,19.22,0,0,1-2.54,2.06,18.46,18.46,0,0,1-2.83,1.64,18.45,18.45,0,0,1,2.54-2.06A19,19,0,0,1,157,74.16Z"/><path d="M158.43,76.43a17.29,17.29,0,0,1-2.46,2A16.67,16.67,0,0,1,153.22,80a16.87,16.87,0,0,1,2.46-2A18.22,18.22,0,0,1,158.43,76.43Z"/><path d="M159.31,79a15.29,15.29,0,0,1-2.22,1.9,14.65,14.65,0,0,1-2.51,1.48,14.7,14.7,0,0,1,2.21-1.9A15.42,15.42,0,0,1,159.31,79Z"/><path class="cls-1" d="M184.57,63.27l-.25-.22c-2.56-2.25-4.58-4-3.43-9.12l1.17-4.19h0l-9.56-16.3h0a40.9,40.9,0,0,0-11.84,7.8h0a50.65,50.65,0,0,0-.68,5.4c-.34,4.91.28,7.42.87,8.66A32.37,32.37,0,0,0,165,61.59c0,.18,1.47,7.69,1.34,10.15h0l1.42.29a36.93,36.93,0,0,0,6.92.66,35.49,35.49,0,0,0,8.14-.94l5.39-5.29h0Z"/><path class="cls-3" d="M160.85,37.14l2.25,3.17c1.17,1.64,3,1.1,4,.47,1.71-1,2.71-3.07,1.6-4.54l-2.85-3.78Z"/><path d="M163,40.18A3.34,3.34,0,0,0,165.06,39a9,9,0,0,0,2.15-4.7l-.16-.21-5.79,3.63Z"/><path d="M163,40.18h0l-1.75-2.47h0l5.79-3.63h0l.17.22a8.92,8.92,0,0,1-2.16,4.7A3.38,3.38,0,0,1,163,40.18Zm0,0h0a3.4,3.4,0,0,0,2-1.18,9,9,0,0,0,2.15-4.69l-.16-.21-5.78,3.63Z"/><path class="cls-3" d="M166.19,29.41a5.58,5.58,0,0,0-9.41,5.86l.36.64.11.18a5.58,5.58,0,0,0,10.15-3.27,1.55,1.55,0,0,0,.36-.19,1.81,1.81,0,0,0-1.57-3.22Z"/><path d="M159,36c.34-.39.68-.78,1-1.18s.83-1.08,1.19-1.66a17.9,17.9,0,0,0-1.5,1.38c-.48.48-.93,1-1.37,1.49l-.34.39.51,0a25.27,25.27,0,0,0,3.37,0A21.52,21.52,0,0,0,159,36Z"/><path d="M166.07,29.08a5.4,5.4,0,0,0-7.53-.87,5.71,5.71,0,0,0-1.88,7.12l.08.15.12-.11c.07-.06,1.57-1.43,2.08-6.11a7.71,7.71,0,0,0,4.74,1.12,4.13,4.13,0,0,0,2.63-1Z"/><ellipse cx="161.73" cy="31.94" rx="0.42" ry="0.83" transform="translate(11.02 98.76) rotate(-35.08)"/><path d="M162.07,32.93H162a1.38,1.38,0,0,1-.79-.59,1.35,1.35,0,0,1-.28-.94.55.55,0,0,1,.21-.34c.32-.22.82,0,1.18.5a1.3,1.3,0,0,1,.28.94.48.48,0,0,1-.21.35A.55.55,0,0,1,162.07,32.93Zm-.68-1.46h0a1.07,1.07,0,0,0,.21.56h0c.21.28.43.39.48.37a1,1,0,0,0-.21-.56A.84.84,0,0,0,161.39,31.47Z"/><ellipse cx="158.89" cy="34.4" rx="0.42" ry="0.83" transform="translate(9.09 97.58) rotate(-35.08)"/><path d="M159.23,35.26h-.08a1.23,1.23,0,0,1-.71-.53h0c-.31-.45-.36-.92-.1-1.1s.69,0,1,.47a1.24,1.24,0,0,1,.26.84.38.38,0,0,1-.15.26A.34.34,0,0,1,159.23,35.26Zm-.58-.69a1.06,1.06,0,0,0,.54.43.18.18,0,0,0,.11,0,.19.19,0,0,0,0-.09,1,1,0,0,0-.22-.65c-.25-.35-.55-.48-.64-.41s-.08.39.16.74Z"/><path d="M163.7,32.36s1.07,1.83-1.38,3.69C162.32,36.05,166.78,35,163.7,32.36Z"/><path d="M167,30.19a.92.92,0,0,1,.86.81,1,1,0,0,1-.12.63,1,1,0,0,1-.43.42,5,5,0,0,0,0-1A2.39,2.39,0,0,0,167,30.19Z"/><ellipse cx="160.29" cy="24.57" rx="2.74" ry="4.25" transform="translate(15 96.59) rotate(-35.08)"/><path class="cls-8" d="M180.33,77A19,19,0,0,1,176,82.24c-2.07,1.61,1.2,3.71,4.32.72Z"/><path class="cls-3" d="M186.51,56.36c-5.06-6.84-15.57-19.17-14-22.93,0,0,4.67-3,9.82,1.34S196,52.27,195.72,56.21c-.58,9.77-6.79,15.38-5.79,21.51s-.55,9.13-1.75,6.51c0,0-.17,3.56-2.48.85,0,0-.19,4-2.33,1.3,0,0-.93,4.43-2.22,1.2-1.71-4.29-2.15-6.76-.82-10.61S186.51,56.36,186.51,56.36Z"/><path d="M182.35,80.73c.13,1,.21,1.93.35,2.87a13.09,13.09,0,0,0,.67,2.78,3.84,3.84,0,0,1-.79-1.26,6,6,0,0,1-.39-1.44A7.33,7.33,0,0,1,182.35,80.73Z"/><path d="M185.2,80.6c.07.78.1,1.52.17,2.26,0,.37.08.73.12,1.1s.14.73.21,1.12a3.83,3.83,0,0,1-.85-2.17A4.91,4.91,0,0,1,185.2,80.6Z"/><path d="M188.07,80.08c0,.73,0,1.41,0,2.09a9.63,9.63,0,0,0,.13,2.06,2.41,2.41,0,0,1-.52-1,3.7,3.7,0,0,1-.13-1.09A4.45,4.45,0,0,1,188.07,80.08Z"/><rect x="120.19" y="70.04" width="11.31" height="1.03" transform="translate(12.88 160.3) rotate(-67.74)"/><rect x="116.6" y="66.6" width="1.03" height="9.24" transform="translate(-9.27 18.15) rotate(-8.53)"/><rect x="109.12" y="69.07" width="1.03" height="8.2" transform="translate(-16.65 110.92) rotate(-50.36)"/><path class="cls-3" d="M119.33,112.61c3.29-2.1,3.83-2,4.87-4.62s3.17-6.26,3.59-2.65a14.77,14.77,0,0,1,0,3.29s8.46-6,8.92-4c.32,1.33-2,2.69-2,2.69s2.71-1.91,3.84-1.2-2.13,3-2.13,3,1.78-.65,2.65-.17,1.46,1-4.68,4.19c0,0,3.81-1,4.05.36s-8.66,3.81-11.35,5.14a59.47,59.47,0,0,1-5.51,2.34Z"/><path d="M130,110.27a17.08,17.08,0,0,1,2.55-1.93,18.05,18.05,0,0,1,2.82-1.49,18.18,18.18,0,0,1-2.55,1.93A17.62,17.62,0,0,1,130,110.27Z"/><path d="M126.23,109.46a20.29,20.29,0,0,1,2.69-2,18.78,18.78,0,0,1,3-1.52,21.45,21.45,0,0,1-5.65,3.48Z"/><path d="M130.82,112.37a20.63,20.63,0,0,1,2.75-1.93,20.17,20.17,0,0,1,3-1.49,21.92,21.92,0,0,1-5.77,3.42Z"/><path d="M131.93,114.65a19.33,19.33,0,0,1,2.72-1.91,20.06,20.06,0,0,1,3-1.46,18.24,18.24,0,0,1-2.72,1.91A19.59,19.59,0,0,1,131.93,114.65Z"/><path class="cls-3" d="M222.59,125.31c-3.52-1.68-4.05-1.53-5.39-4s-3.92-5.84-3.89-2.2a14.42,14.42,0,0,0,.44,3.26s-9.12-4.89-9.35-2.9c-.15,1.36,2.27,2.43,2.27,2.43s-2.92-1.56-3.95-.73,2.47,2.7,2.47,2.7-1.85-.43-2.64.15-1.33,1.2,5.15,3.59c0,0-3.91-.52-4,.85s9.06,2.72,11.89,3.72,5.75,1.65,5.75,1.65Z"/><path d="M211.73,124.29a20,20,0,0,1-5.74-2.74,17.29,17.29,0,0,1,3,1.14A18,18,0,0,1,211.73,124.29Z"/><path d="M215.35,123a20,20,0,0,1-3.11-1.15,18.73,18.73,0,0,1-2.9-1.61,20.68,20.68,0,0,1,6,2.76Z"/><path d="M211.16,126.48a20.27,20.27,0,0,1-3.18-1.11,19.29,19.29,0,0,1-3-1.59,20.3,20.3,0,0,1,3.18,1.12A19.71,19.71,0,0,1,211.16,126.48Z"/><path d="M210.33,128.87a19.08,19.08,0,0,1-3.14-1.08,18.73,18.73,0,0,1-2.93-1.56,21.79,21.79,0,0,1,6.07,2.64Z"/><path d="M98.38,114.65l23-3.34,3.76,9.62s-24.43,9.4-31.09,11.68S79.8,115.8,80.92,107.74,93.46,97.73,98.38,114.65Z"/><path class="cls-9" d="M113.56,112.45c-2.52.46-5,.9-7.56,1.3l-7.59,1.15-.21,0-.07-.2a42.76,42.76,0,0,0-2.77-6.41,21,21,0,0,0-1.85-3A9,9,0,0,0,91,102.93a9.13,9.13,0,0,1,2.67,2.28,20.11,20.11,0,0,1,2,2.92,39.34,39.34,0,0,1,2.92,6.44l-.28-.17,7.6-1.05Q109.74,112.85,113.56,112.45Z"/><path d="M87.78,90.61c.14,1,1.54,2.32,3.44.93,0,0-.88,1.67-2.4,1.39S87.78,90.61,87.78,90.61Z"/><path class="cls-9" d="M80.15,111.31a37.73,37.73,0,0,0,1.13,7.87,25,25,0,0,0,3,7.26,11.38,11.38,0,0,0,5.74,5,12.19,12.19,0,0,0,7.73-.13,13.9,13.9,0,0,1-3.87,1.07,10.11,10.11,0,0,1-4.05-.38,11.72,11.72,0,0,1-6.21-5.15,24.09,24.09,0,0,1-2.91-7.54A28.71,28.71,0,0,1,80.15,111.31Z"/><path class="cls-9" d="M91.48,120.31A5.94,5.94,0,0,1,93,117.37a8.85,8.85,0,0,1,2.78-1.91,13.77,13.77,0,0,1,3.18-1,15.37,15.37,0,0,1,3.31-.34,31.13,31.13,0,0,0-3.21.73A19.37,19.37,0,0,0,96,115.92a11,11,0,0,0-2.71,1.73A7.26,7.26,0,0,0,91.48,120.31Z"/><path d="M245.46,131.32a25.21,25.21,0,0,1,20.29-12.68c14.62-1.13,9.41,17.42-17.87,28.24l-31.07-12.49,4-10.59S232.18,124.3,245.46,131.32Z"/><polygon class="cls-3" points="135.11 197.42 137.68 205.01 144.73 202.15 141.8 194.23 135.11 197.42"/><path d="M135.66,199l1.05,3.12a8.57,8.57,0,0,0,3.86-1.9,6.76,6.76,0,0,0,1.72-4.71l-.4-1.07Z"/><path d="M136.71,202.16h0L135.66,199h0l6.23-4.57h0l.39,1.07a6.71,6.71,0,0,1-1.71,4.72,8.63,8.63,0,0,1-3.87,1.89Zm-1-3.12,1.05,3.11a8.83,8.83,0,0,0,3.85-1.89,6.71,6.71,0,0,0,1.71-4.71l-.39-1.06Z"/><path class="cls-3" d="M142.15,191.62a5.83,5.83,0,0,0-11.22,2.9l.16.75a1.8,1.8,0,0,0,.06.22,5.83,5.83,0,0,0,11.14-.09,1.56,1.56,0,0,0,.42-.08,1.89,1.89,0,0,0-.56-3.7Z"/><path d="M131.59,196.31c.49-.41,1-.82,1.45-1.25s1.23-1.15,1.81-1.78c-.72.45-1.4,1-2.08,1.46s-1.33,1-2,1.58l-.51.43.66,0a36,36,0,0,0,4.28-.06A34.61,34.61,0,0,0,131.59,196.31Z"/><path d="M142.06,191a5.63,5.63,0,0,0-7.2-3.11,6.07,6.07,0,0,0-4.18,6.64l0,.34.32-.13c.08,0,2-.93,4-5.31a7.43,7.43,0,0,0,3.87,2.32c.68.22,2.85.35,3.42-.14Z"/><path d="M137.47,192.7a1.59,1.59,0,0,0-.67-.92.6.6,0,0,0-.47-.05.71.71,0,0,0-.44.6,1.7,1.7,0,0,0,.08.85c.19.6.58,1,1,1a.45.45,0,0,0,.16,0C137.53,194,137.69,193.38,137.47,192.7Z"/><path d="M138.56,194.06s.57,2.17-2.47,3.35C136.09,197.41,140.93,197.61,138.56,194.06Z"/><path d="M142.33,192.48a1.24,1.24,0,0,1,.59.33,1,1,0,0,1,.31.68,1.31,1.31,0,0,1-.72,1.13c0-.23.1-.42.14-.61a2.41,2.41,0,0,0,.06-.5,1.17,1.17,0,0,0-.1-.47C142.53,192.88,142.42,192.7,142.33,192.48Z"/><polygon class="cls-4" points="199.67 268.68 203.01 219.14 230.13 219.14 230.13 238.51 271.76 238.22 274.05 268.68 199.67 268.68"/><polygon points="173.93 255.73 181.53 250.87 185.93 257.18 183.71 258.99 209.38 268.68 181.46 268.68 173.93 255.73"/><path class="cls-4" d="M126.54,240.39s-45.29,28.29-11.85,28.29h57.64l-7.88-20.06H140.63l8.26-8.23Z"/><path class="cls-10" d="M137.88,240.39S92.59,268.68,126,268.68h57.65l-7.88-20.06H152l-.08-8.23Z"/><path d="M116.79,276.8c0,4.64-10.71,8.4-23.92,8.4s-23.93-3.76-23.93-8.4l-.23-2.35h47.86Z"/><ellipse class="cls-6" cx="92.64" cy="274.45" rx="23.93" ry="8.4"/><path class="cls-3" d="M107.57,229.87c-3.58-.68-4-.42-5.82-2.31s-4.93-4.33-4-1.06a13.23,13.23,0,0,0,1.18,2.84s-9.4-2.23-9.13-.39c.19,1.27,2.63,1.65,2.63,1.65s-3-.7-3.74.3,2.87,1.83,2.87,1.83-1.76.06-2.35.77-.9,1.4,5.51,2c0,0-3.65.47-3.38,1.72s8.83.3,11.62.52a55.8,55.8,0,0,0,5.58.12Z"/><path d="M97.53,231.54a17.44,17.44,0,0,1-5.84-1.1,14.64,14.64,0,0,1,3,.3A15.41,15.41,0,0,1,97.53,231.54Z"/><path d="M100.49,229.53a19.54,19.54,0,0,1-6.19-1.06,19.54,19.54,0,0,1,6.19,1.06Z"/><path d="M97.53,233.65a17.34,17.34,0,0,1-3.14-.23,17.13,17.13,0,0,1-3-.73,17.16,17.16,0,0,1,3.13.22A17.48,17.48,0,0,1,97.53,233.65Z"/><path d="M97.35,236a18.43,18.43,0,0,1-6-.92,15.39,15.39,0,0,1,3,.21A16.24,16.24,0,0,1,97.35,236Z"/><path class="cls-3" d="M136.22,252.93c-2.55,2.67-2.58,3.19-5.17,3.67s-6.4,1.8-3.13,2.85A13.53,13.53,0,0,0,131,260s-7.09,6.75-5.37,7.54c1.18.54,2.86-1.32,2.86-1.32s-1.74,2.68-1.29,3.85,4.27-3.79,4.27-3.79-1.59,3.49-1.15,4.63c.35.89,2,.42,3.93-3.72,0,0-.93,3.55.28,4s2.69-5.76,5.84-10c1.7-2.27,3.19-4.68,3.19-4.68Z"/><path d="M132.3,261.85a21.22,21.22,0,0,1-4.36,4.9,17.65,17.65,0,0,1,2-2.62A19,19,0,0,1,132.3,261.85Z"/><path d="M132,258.76a18.66,18.66,0,0,1-4.22,4.58,19.15,19.15,0,0,1,4.22-4.58Z"/><path d="M134.07,262.61a15.53,15.53,0,0,1-1.82,3.07,13.67,13.67,0,0,1-2.44,2.6c.64-1,1.33-1.95,2-2.9S133.26,263.5,134.07,262.61Z"/><path d="M135.91,264.2a10.16,10.16,0,0,1-1,2.73,9.07,9.07,0,0,1-1.75,2.34c.19-.45.42-.88.63-1.31s.45-.85.67-1.28A27.72,27.72,0,0,1,135.91,264.2Z"/><path class="cls-1" d="M141.67,243.26H122.2l.91-4h-22l4.41-11.9a74.22,74.22,0,0,1,13.2,0s3.84-18.84,18.52-24.87,27.53-.33,27.53,22.61c0,18.77-21.94,35-21.94,35L132,255.38Z"/><path d="M149.92,211.74c0,3.77-.08,7.55-.19,11.32s-.3,7.53-.44,11.3v.16l-.11.13c-1.37,1.77-2.8,3.5-4.21,5.25l-4.24,5.22c-2.88,3.45-5.75,6.9-8.73,10.26,2.62-3.66,5.34-7.22,8.07-10.79l4.15-5.29c1.39-1.76,2.76-3.54,4.18-5.27l-.1.28c.23-3.76.38-7.53.69-11.29S149.54,215.5,149.92,211.74Z"/><path d="M122.2,243.26c.36-2.5.82-5,1.31-7.44s1-4.93,1.57-7.38,1.15-4.89,1.8-7.32l1-3.65c.36-1.2.69-2.42,1.09-3.62-.17,1.26-.4,2.49-.6,3.74l-.7,3.7c-.48,2.48-1,4.93-1.58,7.38s-1.15,4.9-1.8,7.33S123,240.86,122.2,243.26Z"/><path class="cls-9" d="M269.77,132.61a73.8,73.8,0,0,1-10.19,8.29q-2.73,1.86-5.61,3.46a47.91,47.91,0,0,1-5.95,2.87l-.15.05-.13-.05c-2.84-1.18-5.71-2.31-8.53-3.53s-5.66-2.42-8.46-3.7c2.91,1,5.79,2.09,8.67,3.18s5.73,2.24,8.6,3.35h-.28a68.32,68.32,0,0,0,11.49-6.16q2.75-1.76,5.39-3.71T269.77,132.61Z"/><path class="cls-9" d="M235.36,127q2.61.87,5.18,1.88t5.14,2l-.66.21a19.66,19.66,0,0,1,2.57-3.57,24.3,24.3,0,0,1,3.14-3,27,27,0,0,1,3.6-2.42,24.84,24.84,0,0,1,3.94-1.77c-.61.38-1.25.7-1.85,1.08s-1.21.76-1.79,1.17a34.61,34.61,0,0,0-6.28,5.63,23.13,23.13,0,0,0-2.45,3.37l-.23.4-.42-.18c-1.67-.75-3.33-1.52-5-2.33S237,127.83,235.36,127Z"/></g></svg>