<svg xmlns="http://www.w3.org/2000/svg" viewBox="0 0 300 300"><defs><style>.cls-1{fill:#f4f4f4;}.cls-2{fill:#c1c1c1;}.cls-3{fill:#f2b4b7;}.cls-4{fill:#efb1b4;}.cls-5{fill:#e99da5;}.cls-6{fill:#a0a0e0;}.cls-7{fill:#d7d7d7;}.cls-8{fill:#76321b;}.cls-9{fill:#dfd9d6;}.cls-10{fill:#ebebeb;}.cls-11{fill:#e4dfdc;}.cls-12{fill:#e8e4e1;}</style></defs><g id="woman_carrying_file_folders"><polygon class="cls-1" points="142.96 67.55 165.48 74.23 165.19 75.65 142.6 78.97 142.96 67.55"/><polygon class="cls-2" points="144.78 56.93 166.7 62.13 166.26 63.17 145.49 65.35 144.78 56.93"/><polygon class="cls-2" points="145.05 45.56 167.21 50.6 167 51.45 145.29 54.95 145.05 45.56"/><polygon class="cls-1" points="143.76 36.12 166.26 39.01 144.67 43.91 143.76 36.12"/><ellipse cx="206.38" cy="29.29" rx="5.59" ry="2.64" transform="translate(67.44 184.68) rotate(-56.28)"/><path d="M204.07,34.29a1.51,1.51,0,0,1-.87-.25,2.44,2.44,0,0,1-.69-2.52,9.59,9.59,0,0,1,1.57-3.77,9.81,9.81,0,0,1,2.88-2.9,2.45,2.45,0,0,1,2.59-.32,2.44,2.44,0,0,1,.7,2.52,9.78,9.78,0,0,1-1.58,3.77,9.58,9.58,0,0,1-2.88,2.9A3.42,3.42,0,0,1,204.07,34.29Zm4.61-9.76a3.16,3.16,0,0,0-1.59.54,9.28,9.28,0,0,0-2.8,2.82,9.42,9.42,0,0,0-1.54,3.67c-.16,1.11.05,1.91.59,2.28s1.37.24,2.33-.34a9.37,9.37,0,0,0,2.79-2.82A9.42,9.42,0,0,0,210,27c.16-1.1,0-1.91-.59-2.27A1.26,1.26,0,0,0,208.68,24.53Z"/><circle class="cls-3" cx="198.34" cy="30.93" r="7.02"/><path class="cls-3" d="M197.47,30.24c-2.58-.92-5.58-2.37-5.58-2.37l1.4,4.76Z"/><path d="M197.47,30.24c-1.79-1-3.6-1.85-5.42-2.7l-.76-.35.25.78a32.72,32.72,0,0,0,1.75,4.66,31.7,31.7,0,0,0-.84-4.1A21.72,21.72,0,0,0,197.47,30.24Z"/><path d="M199.06,27.56c-.39-.24-1,.08-1.41.75s-.42,1.36,0,1.6a.52.52,0,0,0,.3.08,1.52,1.52,0,0,0,1.12-.83,2,2,0,0,0,.31-.87A.72.72,0,0,0,199.06,27.56Z"/><path d="M195,27.14a1.52,1.52,0,0,0-.81.69c-.35.57-.35,1.16,0,1.38a.5.5,0,0,0,.27.07,1.29,1.29,0,0,0,1-.7c.35-.58.35-1.17,0-1.39A.54.54,0,0,0,195,27.14Z"/><path d="M194.06,33.35s2.23-1.8,5.2,1.12C199.26,34.47,196.93,28.72,194.06,33.35Z"/><path d="M200,24.12c.07,2.66.34,9.29,1.52,13.06A7,7,0,0,0,200,24.12Z"/><path d="M201.46,37.36l0-.15c-1.18-3.77-1.46-10.41-1.52-13.08V24l.16,0a7.14,7.14,0,0,1,1.55,13.29Zm-1.31-13.07c.07,2.73.36,9,1.46,12.71a6.88,6.88,0,0,0-1.46-12.71Z"/><path d="M198.34,23.91a7,7,0,0,0-5.15,2.27s4.81.31,6.83-2.06h0A7.16,7.16,0,0,0,198.34,23.91Z"/><path d="M193.73,26.31h-.55l-.25,0,.17-.19a7.16,7.16,0,0,1,5.24-2.3,7.27,7.27,0,0,1,1.71.21l.2.05-.13.15C198.48,26.12,195.06,26.31,193.73,26.31Zm-.26-.25c1,0,4.56,0,6.32-1.86a6.64,6.64,0,0,0-1.45-.16A6.91,6.91,0,0,0,193.47,26.06Z"/><ellipse class="cls-4" cx="147.69" cy="107.56" rx="2.58" ry="2.05" transform="translate(-27.85 158.22) rotate(-52.16)"/><ellipse class="cls-4" cx="144.56" cy="107.45" rx="2.58" ry="2.05" transform="translate(-28.97 155.71) rotate(-52.16)"/><ellipse class="cls-4" cx="151.16" cy="108.03" rx="2.58" ry="2.05" transform="translate(-26.88 161.14) rotate(-52.16)"/><ellipse class="cls-4" cx="154.67" cy="108.37" rx="2.58" ry="2.05" transform="translate(-25.8 164.05) rotate(-52.16)"/><polygon points="137.81 95.71 137.93 97.28 142.38 98.96 142.38 104.34 138.58 105.39 138.5 105.39 138.5 105.39 138.58 106.57 159.07 108.21 161.72 95.71 137.81 95.71"/><path class="cls-5" d="M196.38,137.75c-6.73,16-15.27,27.45-10.73,35.45s11.64,19.64,7.46,35.82-14.56,26.18-8.73,42.9L178,276.1l-14.18-4.36a56.94,56.94,0,0,1,6-20.54c5.28-9.82.55-14.91,1.1-46.18s.72-24.91-1.1-32.18-.82-39.45-.82-39.45Z"/><path d="M164,270.07a21.77,21.77,0,0,1,12.64,4l6.43-27s5.26,2.8,4.27,13.84a97.89,97.89,0,0,0,0,18.93h-2.8l-.82-18.11-4.94,18.11H152.93Z"/><path class="cls-4" d="M210.2,140.67c-6.73,16-14.82,27.53-10.28,35.53s11.64,19.64,7.46,35.82-14.55,26.18-8.73,42.9l-6.36,24.18-14.18-4.36a56.83,56.83,0,0,1,6-20.54c5.27-9.82.54-14.91,1.09-46.18s.72-24.91-1.09-32.18,2.18-39.45,2.18-39.45Z"/><path d="M178.28,273.07a21.77,21.77,0,0,1,12.64,4l6.44-27s5.25,2.8,4.26,13.84a98.88,98.88,0,0,0,0,18.93h-2.8L198,264.69l-4.94,18.11H167.2Z"/><path class="cls-6" d="M168.16,142.16s20.62-1.36,40.51,3.08c0,0,19.4-36.87-2.28-53.45-19.77-15.13,7.71-50.23,7.71-50.23s-3.48-1.46-11.39-3.81c-8.28-2.45-34.2,71.82-34.2,71.82Z"/><polygon points="166.51 51.1 163.84 62.13 196.26 69.74 200.04 57.39 166.51 51.1"/><polygon points="141 259.78 147.27 280.41 55.34 280.41 55.34 276.76 88.25 265.27 141 259.78"/><polygon class="cls-2" points="88.82 268.46 92.38 277.56 55.34 278.65 55.42 278.52 88.82 268.46"/><polygon class="cls-7" points="95.29 269.18 121.89 266.42 124.31 274.73 98.28 276.29 95.29 269.18"/><ellipse class="cls-7" cx="134.12" cy="270.1" rx="4.13" ry="3.56"/><path d="M149.41,195.22a6.93,6.93,0,0,0-2.48-3.39,2.94,2.94,0,0,0-2.5-.37,3.77,3.77,0,0,0-1.86,1.4,11.42,11.42,0,0,0-1.71,3.56c-.33,1.14-.59,2.27-.81,3.41a17.5,17.5,0,0,1-2.72-1.49c-3.88-2.6-6.46-6.79-7.91-11.29a43.59,43.59,0,0,1-1.84-14.22,68.89,68.89,0,0,1,1.93-14.4,64.66,64.66,0,0,1,5-13.74,58.51,58.51,0,0,0-5.83,13.51,63,63,0,0,0-2.54,14.58,43.08,43.08,0,0,0,1.58,14.82A22.55,22.55,0,0,0,136.22,200a20,20,0,0,0,3.49,1.9,85.17,85.17,0,0,0-.68,9.28q-.12,7.38.41,14.72c.12-4.9.23-9.8.63-14.66.17-2.44.42-4.86.78-7.26.08-.52.16-1,.25-1.56.71.24,1.43.45,2.16.62a6.81,6.81,0,0,0,4.21,0,4,4,0,0,0,1.82-1.57,5.41,5.41,0,0,0,.68-2.13A8.88,8.88,0,0,0,149.41,195.22ZM148.05,199a2.38,2.38,0,0,1-1.34,2.12,3.17,3.17,0,0,1-1.37.19,5.18,5.18,0,0,1-.78-.09l-.86-.19a21.78,21.78,0,0,1-2.22-.67,28.44,28.44,0,0,1,.94-3.46,10.49,10.49,0,0,1,1.51-3,2.2,2.2,0,0,1,1-.78,1.13,1.13,0,0,1,1,.21,5.19,5.19,0,0,1,1.68,2.51A7.14,7.14,0,0,1,148.05,199Z"/><path class="cls-8" d="M223.93,41.26c-6.91-3.73-15.52-5.92-19.7,3.72-5,11.51,6.41,40.57,6.41,40.57l34-27.29S230.84,45,223.93,41.26Zm-1.36,20.12a11.22,11.22,0,1,1,2.91-15.6A11.22,11.22,0,0,1,222.57,61.38Z"/><polygon points="167.35 23.85 202.71 37.75 198.93 44.42 164.46 39.01 142.84 36.12 142.84 34.13 167.35 23.85"/><polygon class="cls-7" points="167.21 26.45 164.84 36.75 142.84 35.19 167.21 26.45"/><polygon class="cls-9" points="170.26 29.39 186.23 34.82 185.27 38.4 169.01 36.32 170.26 29.39"/><circle class="cls-9" cx="191.34" cy="38.4" r="1.71"/><polygon points="164.46 39.01 163.94 50.6 198.36 57.39 200.75 44.42 164.46 39.01"/><polygon points="143.76 43.91 164.46 39.01 163.94 50.6 143.76 45.22 143.76 43.91"/><polygon class="cls-10" points="164.39 40.66 143.76 44.61 163.94 49.13 164.39 40.66"/><polygon class="cls-11" points="180.21 44.42 195.34 46.52 194.15 52.43 178.98 49.54 180.21 44.42"/><circle class="cls-11" cx="171.32" cy="44.9" r="2.31"/><circle class="cls-11" cx="191.34" cy="62.12" r="2.31"/><polygon points="144.59 36.12 145.72 43.44 143.76 43.91 142.84 36.12 144.59 36.12"/><polygon class="cls-12" points="170.54 54.11 187.16 58.24 186.23 63.66 168.51 60.42 170.54 54.11"/><polygon points="166.51 51.1 143.76 54.72 143.76 57.39 163.84 62.13 166.51 51.1"/><polygon points="165.79 62.58 164.9 74.9 195.34 79.04 198.93 69.74 165.79 62.58"/><circle class="cls-11" cx="171.72" cy="70.02" r="2.31"/><polygon class="cls-11" points="179.87 68.95 191.96 70.81 190.78 75.22 178.98 73.08 179.87 68.95"/><polygon points="164.9 74.9 142.09 67.71 142.09 64.97 165.79 62.58 164.9 74.9"/><polygon points="165.79 74.76 163.05 85.85 185.47 90.41 197.49 79.04 165.79 74.76"/><polygon points="163.05 85.85 143.76 88.22 139.49 79.04 165.79 74.76 163.05 85.85"/><polygon class="cls-7" points="139.77 80.48 163.05 76.51 161.52 83.78 142.58 86.53 139.77 80.48"/><circle class="cls-11" cx="170.47" cy="81.28" r="2.31"/><polygon class="cls-11" points="191.96 81.49 177.62 80.03 176.51 84.85 188.78 86.45 191.96 81.49"/><polygon points="161.17 84.95 159.07 95.71 196.84 98.62 197.49 88.84 161.17 84.95"/><path class="cls-10" d="M140.64,95.71h18.43L161.17,85l-17.4,3.27s4.17,4.68-3.13,7.49Z"/><polygon class="cls-11" points="192.54 91.38 173.63 90.41 172.48 94.09 191.34 95.71 192.54 91.38"/><polygon points="194.85 98.19 161.72 95.71 159.07 108.21 194.85 106.94 194.85 98.19"/><polygon class="cls-11" points="163.13 99.58 162.71 104.34 173.99 104.02 174.31 99.58 163.13 99.58"/><path class="cls-5" d="M176.31,96.8C172.12,98,171.72,98,167,99.32c-3,.81,1.3,5.18,7.76,1.41Z"/><path class="cls-4" d="M190.37,78a27.52,27.52,0,0,0,5.39-10.59c4.22-16,12.34-25.33,17.93-26.2,6.13-.94,7.48,10,2.46,20.94S206.38,79,206.38,79s-8.89,9.87-17.07,15.72c-1.63,1.16-3.18,2.42-3.84,4.31a11.68,11.68,0,0,0-.53,2c-.64,3.84-1.67,8.16-4.72,9.69a3,3,0,0,1-2.66-.42,5.69,5.69,0,0,1-3.55.3c-1.07-.3-.75-.91-.75-.91s-6.39,2.44-4.9-.33c0,0-6,1.47-6.26-1.26a14.29,14.29,0,0,0,5.24-1.41c2.45-1.28,4-6.42,9.28-12.4C179.93,90.52,186.21,83,190.37,78Z"/><path class="cls-7" d="M138.58,105.39l19.67.73.82-8.84H137.93S142.45,100.57,138.58,105.39Z"/><polygon points="145.72 45.75 146.33 54.31 143.76 54.72 143.76 45.22 145.72 45.75"/><polygon points="146.15 56.52 146.35 64.67 142.09 64.97 142.09 55.6 146.15 56.52"/><polygon points="143.4 68.12 143.76 78.35 140.64 78.97 142.09 66.4 143.4 68.12"/><polygon class="cls-10" points="143.76 55.99 165.79 52.43 163.84 60.42 143.76 55.99"/><polygon class="cls-10" points="142.09 66.4 164.79 64.97 163.84 72.33 142.09 66.4"/><path d="M172.39,104.81a2.42,2.42,0,0,1-.14,1.69,4.39,4.39,0,0,1-1,1.38,5.52,5.52,0,0,1-1.34,1,4.22,4.22,0,0,1-1.57.52c.73-.85,1.51-1.5,2.21-2.2a11.32,11.32,0,0,0,1-1.07A6.19,6.19,0,0,0,172.39,104.81Z"/><path d="M176.31,105.31a3.85,3.85,0,0,1-.63,2.81,4.19,4.19,0,0,1-1,1.06,2.62,2.62,0,0,1-1.38.52l.84-1.09c.26-.35.52-.69.75-1s.47-.71.7-1.08S176,105.71,176.31,105.31Z"/><path d="M180.5,105.74a3.37,3.37,0,0,1-.39,3,3.61,3.61,0,0,1-1.1,1.1,2.77,2.77,0,0,1-1.45.49,16.28,16.28,0,0,0,1.71-2.13,9,9,0,0,0,.64-1.14C180.11,106.64,180.27,106.21,180.5,105.74Z"/><rect x="192.55" y="17.26" width="1" height="3.52" transform="translate(4.39 64.18) rotate(-19.09)"/><rect x="187.26" y="20.21" width="1" height="3.52" transform="translate(104.04 191.46) rotate(-70.39)"/><circle class="cls-11" cx="190.03" cy="102.5" r="1.77"/><circle class="cls-11" cx="167.2" cy="90.88" r="2.02"/></g></svg>